<?xml version="1.0" encoding="UTF-8"?>
<svg width="140px" height="29px" viewBox="0 0 140 29" version="1.1" xmlns="http://www.w3.org/2000/svg" xmlns:xlink="http://www.w3.org/1999/xlink">
    <title>1A325DC4-4CF8-4486-A4D8-BC4004C43B62</title>
    <g id="desktop" stroke="none" stroke-width="1" fill="none" fill-rule="evenodd" opacity="1">
        <g id="landing" transform="translate(-727, -3008)" fill="#FFFFFF" fill-rule="nonzero">
            <g id="Group-11" transform="translate(100, 2657)">
                <g id="Group-8-Copy-2" transform="translate(627, 300)">
                    <g id="Group" transform="translate(0, 51)">
                        <path d="M29.7905296,0.150057735 L8.81689463,3.10955989 C4.93311027,3.77522299 4.50732576,3.38691952 3.61977496,6.8636599 L0.69775383,18.3306063 C0.124294066,20.5314924 -0.18979697,21.8260872 0.124294066,22.4737594 C0.382913174,22.9917473 1.16026974,23.3058383 2.71348365,23.6941418 L22.595671,28.5951613 C23.8535344,28.8732706 23.8902658,28.0037106 23.1691307,27.5966667 L17.6391796,24.341814 L29.3647451,24.341814 C31.4179559,24.341814 31.9539346,24.341814 32.6195977,22.2518717 L33.8962016,18.1274591 C35.2650089,12.7819146 35.3384717,12.4678236 30.5296555,10.9146097 C29.4389575,10.599769 28.4217223,9.97083731 27.4232277,9.36064614 C24.3895131,7.45586018 20.7830884,7.34491633 17.4352828,8.41762342 C14.4952707,9.43485858 13.4405545,12.1537325 10.2599143,12.9303395 C9.05752285,13.2076991 5.82066107,13.9475746 5.98707684,16.2226732 C6.17223313,18.607966 6.20896454,18.7931222 7.76292806,18.8298537 C7.96607524,16.7773924 9.70444543,15.2234289 11.8131282,15.2234289 C13.9030705,15.2234289 15.6414406,16.8141238 15.8453374,18.8298537 L21.5971763,18.8298537 C21.819064,16.8141238 23.5761747,15.2234289 25.666117,15.2234289 C28.5326662,15.2234289 29.8639924,17.5539994 29.6608452,20.0689765 C29.6241138,20.5314924 29.6608452,20.6244454 29.2350607,20.6611768 C28.9764416,20.6611768 28.6623506,20.6611768 28.3849909,20.6611768 C27.6451154,20.6244454 27.884994,20.5314924 27.884994,19.2923696 C27.884994,18.0532467 26.9052399,17.0547521 25.666117,17.0547521 C24.4269941,17.0547521 23.409759,18.0532467 23.409759,19.2923696 C23.409759,19.5697292 23.409759,19.7181541 23.5019623,19.9580327 C23.5761747,20.1986609 23.5386937,20.6611768 22.947243,20.6611768 L14.4023178,20.6611768 C13.828858,20.6611768 13.866339,20.2728733 13.9772829,19.8845698 C14.4952707,18.552494 13.2374074,17.0547521 11.8131282,17.0547521 C10.2599143,17.0547521 9.1684667,18.607966 9.66771402,20.0322451 C9.74192646,20.2728733 9.59350158,20.6611768 9.09425426,20.6611768 C5.35814515,20.6611768 4.47059435,20.3470858 4.15650332,16.389089 C3.97134703,13.8178903 5.85739247,12.0795201 9.8341298,11.1364974 C13.9772829,10.1747341 13.7179142,5.93937769 21.9487484,5.93937769 C24.9629729,5.93937769 25.7770608,6.32768116 28.3107785,7.91837609 C29.2350607,8.47309534 30.141352,9.04655511 30.9921714,9.32391473 L32.9344384,2.36968435 C33.4711668,-0.108561374 31.9172032,-0.20151433 29.7905296,0.150057735 Z" id="Fill-1"></path>
                        <path d="M126.038067,21.2533771 C125.52008,21.2533771 125.150517,21.0682208 124.817685,20.7353892 C124.502844,20.4205486 124.318438,20.0509856 124.318438,19.5329978 C124.318438,19.0704819 124.502844,18.7009189 124.817685,18.3680874 C125.150517,18.0532467 125.52008,17.9055714 126.038067,17.9055714 C126.500583,17.9055714 126.870146,18.0532467 127.203728,18.3680874 C127.517819,18.7009189 127.702975,19.0704819 127.702975,19.5329978 C127.702975,19.9955137 127.517819,20.4205486 127.203728,20.7353892 C126.870146,21.0682208 126.500583,21.2533771 126.038067,21.2533771" id="Fill-3"></path>
                        <path d="M116.920432,21.0127489 L115.6993,21.0127489 C115.107849,21.0127489 115.107849,17.9423029 115.6993,17.9423029 L116.957163,17.9423029 C117.197792,18.4602907 117.511883,18.8860752 117.993139,19.1626852 C118.454905,19.4775259 119.010374,19.6252011 119.657297,19.6252011 C120.304969,19.6252011 120.970632,19.2556382 120.970632,18.552494 C120.970632,18.3306063 120.878429,18.1461997 120.674532,17.9977748 C120.489376,17.8500995 120.083081,17.7204152 119.435409,17.5727399 L117.993139,17.3508522 C117.012635,17.1656959 116.309491,16.8883363 115.847725,16.4070799 C115.385209,16.0000359 115.144581,15.4453166 115.144581,14.6874502 C115.144581,12.8381361 116.661063,12.0053076 118.362702,12.0053076 C119.268993,12.0053076 120.156544,12.1537325 120.822957,12.8381361 L120.822957,12.2271953 L121.987867,12.2271953 C122.690262,12.2271953 122.63479,14.9835503 121.987867,14.9835503 L120.674532,14.9835503 C120.544848,14.5022939 120.267488,14.1882029 119.934656,13.9108432 C119.565094,13.670215 119.15805,13.5780117 118.58459,13.5780117 C118.177546,13.5780117 117.844714,13.6334836 117.622827,13.8178903 C117.382198,14.0030466 117.234523,14.2249343 117.234523,14.4655625 C117.234523,15.4453166 119.287734,15.6304729 120.083081,15.7601573 C121.599564,16.0375169 123.152778,16.6664486 123.152778,18.4602907 C123.152778,19.2556382 122.819946,19.9580327 122.209755,20.4580296 C121.100317,21.3455804 119.638556,21.4197929 118.30723,21.0127489 C117.844714,20.8830645 117.382198,20.6424363 116.920432,20.3650767 L116.920432,21.0127489 Z M110.668596,11.3029131 C111.593628,11.3029131 112.333504,10.5630376 112.333504,9.62001487 C112.333504,8.69498304 111.593628,7.89963558 110.668596,7.89963558 C109.725573,7.89963558 108.985698,8.69498304 108.985698,9.62001487 C108.985698,10.5630376 109.725573,11.3029131 110.668596,11.3029131 Z M112.240551,19.1626852 L112.980426,19.1626852 C113.942189,19.1626852 113.924198,21.0127489 112.980426,21.0127489 L109.263058,21.0127489 C108.301294,21.0127489 108.320035,19.1626852 109.263058,19.1626852 L110.058405,19.1626852 L110.058405,14.039778 L109.263058,14.039778 C108.320035,14.039778 108.320035,12.2271953 109.263058,12.2271953 L112.240551,12.2271953 L112.240551,19.1626852 Z M103.751847,9.21297088 L102.956499,9.21297088 C102.068949,9.21297088 102.050208,7.40038825 102.956499,7.40038825 L105.933992,7.40038825 L105.933992,19.1626852 L106.544184,19.1626852 C107.432484,19.1626852 107.432484,21.0127489 106.544184,21.0127489 L103.011971,21.0127489 C102.050208,21.0127489 102.050208,19.1626852 103.011971,19.1626852 L103.751847,19.1626852 L103.751847,9.21297088 Z M98.0734707,11.3029131 C99.0172431,11.3029131 99.7571186,10.5630376 99.7571186,9.62001487 C99.7571186,8.69498304 99.0172431,7.89963558 98.0734707,7.89963558 C97.1491885,7.89963558 96.409313,8.69498304 96.409313,9.62001487 C96.409313,10.5630376 97.1491885,11.3029131 98.0734707,11.3029131 Z M99.6641656,19.1626852 L100.404041,19.1626852 C101.347064,19.1626852 101.347064,21.0127489 100.404041,21.0127489 L96.6866726,21.0127489 C95.7249094,21.0127489 95.7436499,19.1626852 96.6866726,19.1626852 L97.4820201,19.1626852 L97.4820201,14.039778 L96.6866726,14.039778 C95.7436499,14.039778 95.7436499,12.2271953 96.6866726,12.2271953 L99.6641656,12.2271953 L99.6641656,19.1626852 Z M87.5315561,16.6109767 C87.5315561,18.0719872 88.5120599,19.2556382 90.0285424,19.2556382 C91.5450248,19.2556382 92.5989914,18.0907277 92.5989914,16.6109767 C92.5989914,15.1499661 91.5082934,13.9475746 90.0285424,13.9475746 C89.3441387,13.9475746 88.7339476,14.2249343 88.2159597,14.7429221 C87.7534438,15.205438 87.5315561,15.8523606 87.5315561,16.6109767 Z M84.1837505,21.0127489 C83.2961997,21.0127489 83.2961997,19.1626852 84.1837505,19.1626852 L85.3861419,19.1626852 L85.3861419,9.21297088 L84.1837505,9.21297088 C83.2961997,9.21297088 83.2961997,7.40038825 84.1837505,7.40038825 L87.5682875,7.40038825 L87.5682875,13.1522272 C88.4378474,12.3936111 89.177723,12.0053076 90.3613739,12.0053076 C92.9872949,12.0053076 94.818618,14.0217871 94.818618,16.6109767 C94.818618,17.9423029 94.411574,19.0704819 93.5607547,19.9025607 C92.7286758,20.7908612 91.6559687,21.1971555 90.3613739,21.1971555 C89.8066547,21.1971555 89.2886668,21.1049522 88.8261509,20.9197959 C88.363635,20.6979082 87.9386001,20.4205486 87.5682875,20.0509856 L87.5682875,21.0127489 L84.1837505,21.0127489 Z M75.8981939,16.6109767 C75.8981939,18.0719872 76.9521605,19.2923696 78.4506521,19.2923696 C79.9671346,19.2923696 81.0585822,18.0907277 81.0585822,16.6109767 C81.0585822,15.0944942 80.003866,13.8553713 78.4506521,13.8553713 C76.8786977,13.8553713 75.8981939,15.0944942 75.8981939,16.6109767 Z M73.6230954,16.6109767 C73.6230954,15.2976414 74.0856113,14.1882029 75.0106431,13.2999024 C75.9349253,12.4123516 77.1005854,12.0053076 78.4506521,12.0053076 C79.8561907,12.0053076 81.0211011,12.4123516 81.946133,13.2999024 C82.8711648,14.1882029 83.3329311,15.2976414 83.3329311,16.6109767 C83.3329311,17.9055714 82.8711648,18.9782785 81.946133,19.8658293 C81.0211011,20.7353892 79.8561907,21.1971555 78.4506521,21.1971555 C77.1005854,21.1971555 75.9349253,20.7353892 75.0106431,19.8658293 C74.0856113,18.9782785 73.6230954,17.9055714 73.6230954,16.6109767 Z M70.8307586,17.6282118 C70.8307586,18.4235593 70.86749,18.8860752 71.0159149,19.0704819 C71.2557935,19.366582 71.8659847,19.2923696 72.2917692,19.2556382 C72.5878693,19.2368976 72.9019603,19.4775259 72.9574323,19.8470888 C73.0683761,20.3650767 72.7910165,21.0494803 71.7183094,21.0494803 L70.460446,21.0494803 C69.9244673,21.0494803 69.4064794,20.901805 69.1103793,20.6424363 C68.8330197,20.3650767 68.6478634,19.7181541 68.6478634,18.7376503 L68.6478634,14.039778 L67.7603126,14.039778 C66.8172899,14.039778 66.8360304,12.2271953 67.7603126,12.2271953 L68.6478634,12.2271953 L68.6478634,9.89737449 C68.6478634,8.8426583 70.8307586,8.8426583 70.8307586,9.89737449 L70.8307586,12.2271953 L71.8112623,12.2271953 C72.6433412,12.2271953 72.6433412,14.039778 71.8112623,14.039778 L70.8307586,14.039778 L70.8307586,17.6282118 Z M63.5249562,19.8103574 C63.0069683,20.3283452 62.507721,20.6424363 61.9897331,20.8830645 C61.5279669,21.1049522 60.972498,21.2533771 60.4177787,21.2533771 C59.474756,21.2533771 58.8270838,20.9752678 58.3653175,20.4580296 C57.939533,19.9955137 57.7176453,19.2001662 57.7176453,18.1829311 L57.7176453,14.039778 L57.1074541,14.039778 C56.40431,14.039778 56.3863191,12.2271953 57.1074541,12.2271953 L59.8997909,12.2271953 L59.8997909,17.6649432 C59.8997909,18.1461997 60.0294753,18.5157626 60.2701035,18.7376503 C60.5107317,19.0150099 60.8248227,19.1079629 61.2873386,19.1079629 C61.6569016,19.1079629 62.0452051,19.0150099 62.4522491,18.8298537 C62.8225616,18.607966 63.1921246,18.2751344 63.5249562,17.8500995 L63.5249562,14.039778 L62.8780336,14.039778 C62.1748894,14.039778 62.138158,12.2271953 62.8780336,12.2271953 L65.7633233,12.2271953 L65.7633233,19.1626852 L66.9649651,19.1626852 C67.6681093,19.1626852 67.6681093,21.0127489 66.9649651,21.0127489 L64.8195509,21.0127489 C64.0796754,21.0127489 63.5249562,21.1049522 63.5249562,20.3650767 L63.5249562,19.8103574 Z M47.1569902,16.6109767 C47.1569902,18.1087186 48.1000129,19.2556382 49.6719673,19.2556382 C51.1517184,19.2556382 52.2244255,18.0719872 52.2244255,16.6109767 C52.2244255,15.1866975 51.114987,13.9475746 49.6719673,13.9475746 C48.1374939,13.9475746 47.1569902,15.1124851 47.1569902,16.6109767 Z M54.3143677,19.1626852 L55.0175119,19.1626852 C55.7199064,19.1626852 55.7199064,21.0127489 55.0175119,21.0127489 L52.7798944,21.0127489 C52.3728504,21.0127489 52.1322222,20.8830645 52.1322222,20.4580296 L52.1322222,20.0509856 C51.7619096,20.4205486 51.3368747,20.7353892 50.8743588,20.9197959 C50.4118429,21.1049522 49.8946046,21.1971555 49.3946077,21.1971555 C46.7132148,21.1971555 44.9193727,19.2368976 44.9193727,16.6109767 C44.9193727,15.2976414 45.3444076,14.1882029 46.1764864,13.2999024 C47.0093149,12.4123516 48.082022,12.0053076 49.3946077,12.0053076 C50.5415272,12.0053076 51.3001433,12.4123516 52.1322222,13.1522272 L52.1322222,12.6897113 C52.1322222,12.4123516 52.2244255,12.2271953 52.5947381,12.2271953 L55.0175119,12.2271953 C55.7573874,12.2271953 55.7573874,14.039778 55.0175119,14.039778 C54.7768837,14.039778 54.554996,14.039778 54.3143677,14.039778 L54.3143677,19.1626852 Z M129.699964,19.1626852 L130.421849,19.1626852 L130.421849,9.21297088 L129.644492,9.21297088 C128.738201,9.21297088 128.72021,7.40038825 129.644492,7.40038825 L132.622735,7.40038825 L132.622735,19.1626852 L133.214186,19.1626852 C134.101736,19.1626852 134.101736,21.0127489 133.214186,21.0127489 L129.681973,21.0127489 C128.738201,21.0127489 128.72021,19.1626852 129.681973,19.1626852 L129.699964,19.1626852 Z M137.837845,17.6282118 C137.837845,18.4235593 137.893317,18.8860752 138.023002,19.0704819 C138.26363,19.366582 138.873821,19.2923696 139.298856,19.2556382 C139.594956,19.2368976 139.909797,19.4775259 139.98326,19.8470888 C140.076213,20.3650767 139.798103,21.0494803 138.744137,21.0494803 L137.468283,21.0494803 C136.950295,21.0494803 136.432307,20.901805 136.118216,20.6424363 C135.840856,20.3650767 135.6557,19.7181541 135.6557,18.7376503 L135.6557,14.039778 L134.768149,14.039778 C133.990793,14.039778 133.843117,12.2271953 134.768149,12.2271953 L135.6557,12.2271953 L135.6557,9.89737449 C135.6557,8.8426583 137.837845,8.8426583 137.837845,9.89737449 L137.837845,12.2271953 L138.818349,12.2271953 C139.650428,12.2271953 139.650428,14.039778 138.818349,14.039778 L137.837845,14.039778 L137.837845,17.6282118 L137.837845,17.6282118 Z" id="Fill-4"></path>
                    </g>
                </g>
            </g>
        </g>
    </g>
</svg>