<?xml version="1.0" encoding="UTF-8"?>
<svg width="100px" height="34px" viewBox="0 0 100 34" version="1.1" xmlns="http://www.w3.org/2000/svg" xmlns:xlink="http://www.w3.org/1999/xlink">
    <title>A734387E-3879-477B-B459-0D730453A38B</title>
    <g id="desktop" stroke="none" stroke-width="1" fill="none" fill-rule="evenodd" opacity="1">
        <g id="landing" transform="translate(-100, -2855)" fill="#FFFFFF" fill-rule="nonzero">
            <g id="Group-11" transform="translate(100, 2657)">
                <g id="Group-8-Copy-2" transform="translate(0, 150)">
                    <g id="Group" transform="translate(0, 48)">
                        <path d="M50.7367709,5.18769484 L40.7939668,21.2495916 C40.7512661,21.3223268 40.7510948,21.4124332 40.7935185,21.4853303 C40.8359422,21.5582274 40.9143708,21.6025913 40.9987055,21.6014423 L44.0236479,21.6014423 C44.2914104,21.5906298 44.5369663,21.4495428 44.6811188,21.2236388 L53.3810725,7.22066384 C52.7996213,6.22604697 51.8494963,5.50076076 50.7367709,5.20211309" id="Path"></path>
                        <path d="M57.4383596,0.00867035872 L54.364395,0.00867035872 C54.0938829,0.0150466656 53.8451413,0.158426088 53.7040409,0.389311357 L52.5823034,2.20600703 C53.6389742,2.58014265 54.5979192,3.18724457 55.3880888,3.98233169 L57.6402146,0.35470763 C57.6841529,0.282258603 57.6854109,0.19169596 57.6435013,0.118054717 C57.6015913,0.0444134747 57.5230875,-0.000756423071 57.4383596,0" id="Path"></path>
                        <path d="M49.2315088,1.67541655 C42.478015,1.67541655 40.427744,7.11685263 40.427744,10.8108005 C40.427744,13.0139045 41.1284695,15.7360643 43.0230234,17.6392693 L45.0415742,14.3951699 C44.4212259,13.3016081 44.0897529,12.0680123 44.0784371,10.8108005 C44.0784371,9.36897855 44.7099554,5.01755988 49.2372763,5.01755988 C53.6896225,5.01755988 54.3470934,9.37186218 54.3470934,10.8108005 C54.3470934,12.2497388 53.6896225,16.6530631 49.2372763,16.6530631 C48.7034096,16.6550678 48.1717642,16.5842464 47.6570392,16.4425571 L45.8143909,19.4040594 C46.9127459,19.784636 48.0692292,19.9700637 49.2315088,19.9519518 C55.9359809,19.9519518 57.986348,14.5883741 57.986348,10.7963823 C57.9977863,7.10243443 55.9475154,1.67541655 49.2315088,1.67541655" id="Path"></path>
                        <path d="M16.4588957,19.2915973 C16.4888836,19.3767981 16.4772176,19.4711277 16.4273765,19.5464557 C16.3775354,19.6217838 16.2952781,19.6694064 16.205135,19.6751596 L13.0936832,19.6751596 C12.8341774,19.6771698 12.6022152,19.5136364 12.5169544,19.2685282 L10.9770885,15.5197911 L5.49816509,15.5197911 L3.98425202,19.2685282 C3.89404612,19.5098656 3.66513892,19.6712452 3.40752323,19.6751596 L0.270118637,19.6751596 C0.179975512,19.6694064 0.0977182663,19.6217838 0.0478771559,19.5464557 C-0.00196395506,19.4711277 -0.0136300098,19.3767981 0.0163579713,19.2915973 L7.78201109,2.01568653 C7.86420146,1.84908625 8.02916109,1.73911315 8.21455767,1.72732214 C8.40673471,1.73378166 8.5801868,1.8442607 8.66728975,2.01568653 L16.4588957,19.2915973 Z M6.65450629,12.6909363 L9.82651463,12.6909363 L8.23762679,8.72015868 L6.65450629,12.6909363 Z" id="Shape"></path>
                        <path d="M31.6124445,1.93780872 C31.6971726,1.9370523 31.7756764,1.9822222 31.8175861,2.05586344 C31.8594958,2.12950468 31.8582381,2.22006732 31.8142996,2.29251635 L26.3353761,10.7963823 L31.8142996,19.3204338 C31.8582381,19.3928828 31.8594958,19.4834454 31.8175861,19.5570867 C31.7756764,19.6307279 31.6971726,19.6758978 31.6124445,19.6751414 L28.3510432,19.6751414 C28.0803818,19.6692795 27.8314024,19.525763 27.6906888,19.294481 L24.4523566,13.8155575 L21.2428609,19.294481 C21.0983253,19.5203966 20.8532766,19.6622669 20.5853913,19.6751414 L17.3211052,19.6751414 C17.2363771,19.6758978 17.1578733,19.6307279 17.1159636,19.5570867 C17.074054,19.4834454 17.0753116,19.3928828 17.1192501,19.3204338 L22.5808717,10.7963823 L17.1192501,2.29251635 C17.0753116,2.22006732 17.074054,2.12950468 17.1159636,2.05586344 C17.1578733,1.9822222 17.2363771,1.9370523 17.3211052,1.93780872 L20.634412,1.93780872 C20.9027231,1.94923425 21.1483924,2.09146387 21.2918829,2.31846915 L24.4638912,7.75702159 L27.6532014,2.31846915 C27.792586,2.08724023 28.0407428,1.94357049 28.3106722,1.93780872 L31.6124445,1.93780872 Z" id="Path"></path>
                        <path d="M37.6565622,19.245459 C37.6505738,19.479118 37.4633962,19.6675603 37.2297829,19.675122 L34.4960884,19.675122 C34.2613484,19.6690611 34.0724863,19.480199 34.0664255,19.245459 L34.0664255,2.39632753 C34.0709717,2.16046226 34.2602588,1.96990469 34.4960884,1.96378094 L37.2297829,1.96378094 C37.4633962,1.97134264 37.6505738,2.15978492 37.6565622,2.39344389 L37.6565622,19.245459 Z" id="Path"></path>
                        <path d="M65.3078238,9.40069864 L62.2079067,19.2656445 C62.1240679,19.5042789 61.90134,19.6661587 61.6484796,19.6722383 L58.68121,19.6722383 C58.5789546,19.6814518 58.4795129,19.6356016 58.4201184,19.5518558 C58.3607242,19.46811 58.3503371,19.3591006 58.3928459,19.2656445 L64.5148217,2.06759212 C64.57389,1.88131502 64.7491379,1.75664186 64.9444846,1.76161201 C65.1366171,1.77076965 65.306315,1.88989531 65.379915,2.06759212 L70.6685179,13.5243095 L75.9542371,2.06759212 C76.0330417,1.88388691 76.2128529,1.76401274 76.4127367,1.76161201 C76.6077875,1.75760856 76.782515,1.8819114 76.8423996,2.06759212 L82.9413063,19.2656445 C82.983815,19.3591006 82.9734279,19.46811 82.9140334,19.5518558 C82.8546392,19.6356016 82.7551975,19.6814518 82.6529421,19.6722383 L79.7029742,19.6722383 C79.4506188,19.6666269 79.228495,19.5043498 79.1464309,19.2656445 L76.0493975,9.40069864 L71.1472029,19.5222888 C71.0586996,19.70797 70.8713288,19.8262278 70.6656342,19.8262278 C70.4599396,19.8262278 70.2725688,19.70797 70.1840659,19.5222888 L65.3078238,9.40069864 Z" id="Path"></path>
                        <path d="M99.9836421,19.2915973 C100.01363,19.3767981 100.001964,19.4711277 99.952123,19.5464557 C99.9022817,19.6217838 99.8200246,19.6694064 99.7298813,19.6751877 L96.6040113,19.6751877 C96.3445055,19.6771698 96.1125434,19.5136364 96.0272825,19.2685282 L94.4874167,15.5197911 L89.025795,15.5197911 L87.5089984,19.2685282 C87.4194688,19.5103867 87.1901488,19.6720573 86.9322696,19.6751877 L83.7775634,19.6751877 C83.6845929,19.6765835 83.5973617,19.6302903 83.5464613,19.5524777 C83.4955613,19.474665 83.4880971,19.3761934 83.5266863,19.2915973 L91.2894555,2.01568653 C91.3702038,1.84912318 91.5343792,1.73893855 91.7191184,1.72732214 C91.9133871,1.73169551 92.0895338,1.84247963 92.177618,2.01568653 L99.9836421,19.2915973 Z M90.1792525,12.6909363 L93.3512609,12.6909363 L91.7566059,8.72015868 L90.1792525,12.6909363 Z" id="Shape"></path>
                        <path d="M21.2803483,26.6852604 L21.9666556,26.6852604 C21.991384,26.6812205 22.0165455,26.6893284 22.034263,26.7070459 C22.0519804,26.7247634 22.0600884,26.7499249 22.0560485,26.7746533 L22.0560485,32.9139312 C22.0588457,32.9383907 22.0503308,32.9627901 22.0329226,32.9801983 C22.0155144,32.9976065 21.9911151,33.0061214 21.9666556,33.0033242 L21.2803483,33.0033242 C21.2554264,33.0071026 21.2301699,32.9990253 21.2120655,32.9814866 C21.193961,32.9639479 21.1850862,32.9389605 21.1880717,32.9139312 L21.1880717,28.3001009 C21.1898933,28.2861186 21.1830487,28.2724293 21.1707698,28.2654972 C21.1707698,28.2654972 21.1505843,28.2654972 21.144817,28.2827991 L19.8529445,30.2494442 C19.8299707,30.2857305 19.7891261,30.3067048 19.7462497,30.3042335 L19.4030961,30.3042335 C19.3599289,30.3044634 19.319234,30.284116 19.2935176,30.2494442 L17.9929942,28.3001009 C17.9929942,28.2827991 17.9843433,28.2770318 17.9670414,28.2827991 C17.9547625,28.2897312 17.9479179,28.3034204 17.9497395,28.3174028 L17.9497395,32.9312331 C17.9525367,32.9556926 17.9440218,32.9800919 17.9266136,32.9975001 C17.9092054,33.0149083 17.8848061,33.0234232 17.8603466,33.0206261 L17.1740393,33.0206261 C17.1491175,33.0244044 17.123861,33.0163271 17.1057565,32.9987884 C17.0876521,32.9812498 17.0787773,32.9562623 17.0817628,32.9312331 L17.0817628,26.7631187 C17.0787773,26.7380895 17.0876521,26.7131021 17.1057565,26.6955634 C17.123861,26.6780247 17.1491175,26.6699474 17.1740393,26.6737258 L17.8603466,26.6737258 C17.903223,26.6712545 17.9440675,26.6922287 17.9670414,26.728515 L19.5472783,29.093103 C19.5556016,29.09647 19.5649078,29.09647 19.5732311,29.093103 C19.5825603,29.0964014 19.5927383,29.0964014 19.6020675,29.093103 L21.1707698,26.728515 C21.1987921,26.698146 21.2391381,26.6822199 21.2803483,26.6852604 L21.2803483,26.6852604 Z" id="Path"></path>
                        <path d="M31.251989,27.4350078 L28.0482606,27.4350078 C28.0388349,27.4341037 28.0294981,27.4374579 28.0228026,27.4441535 C28.016107,27.450849 28.0127528,27.4601858 28.0136569,27.4696115 L28.0136569,29.4103039 C28.0136569,29.4362566 28.0136569,29.4477912 28.0482606,29.4477912 L30.2513646,29.4477912 C30.276093,29.4437514 30.3012546,29.4518593 30.318972,29.4695768 C30.3366894,29.4872942 30.3447974,29.5124558 30.3407575,29.5371842 L30.3407575,30.113913 C30.3447974,30.1386414 30.3366894,30.1638029 30.318972,30.1815204 C30.3012546,30.1992379 30.276093,30.2073458 30.2513646,30.2033059 L28.0482606,30.2033059 C28.0251915,30.2033059 28.0136569,30.2033059 28.0136569,30.2407933 L28.0136569,32.227624 C28.0127528,32.2370497 28.016107,32.2463864 28.0228026,32.253082 C28.0294981,32.2597776 28.0388349,32.2631318 28.0482606,32.2622277 L31.251989,32.2622277 C31.2769109,32.2584493 31.3021674,32.2665266 31.3202718,32.2840653 C31.3383763,32.301604 31.3472511,32.3265914 31.3442656,32.3516207 L31.3442656,32.9283494 C31.3472511,32.9533787 31.3383763,32.9783661 31.3202718,32.9959048 C31.3021674,33.0134435 31.2769109,33.0215208 31.251989,33.0177424 L27.2379567,33.0177424 C27.2130348,33.0215208 27.1877783,33.0134435 27.1696738,32.9959048 C27.1515694,32.9783661 27.1426946,32.9533787 27.1456801,32.9283494 L27.1456801,26.7631187 C27.1426946,26.7380895 27.1515694,26.7131021 27.1696738,26.6955634 C27.1877783,26.6780247 27.2130348,26.6699474 27.2379567,26.6737258 L31.251989,26.6737258 C31.2769109,26.6699474 31.3021674,26.6780247 31.3202718,26.6955634 C31.3383763,26.7131021 31.3472511,26.7380895 31.3442656,26.7631187 L31.3442656,27.3398475 C31.3480152,27.3655345 31.3396232,27.3915062 31.3215518,27.4101423 C31.3034804,27.4287784 31.2777791,27.4379654 31.251989,27.4350078 Z" id="Path"></path>
                        <path d="M40.2604926,26.7631187 L40.2604926,27.3398475 C40.2632898,27.364307 40.2547749,27.3887063 40.2373667,27.4061145 C40.2199585,27.4235227 40.1955592,27.4320376 40.1710997,27.4292405 L38.4409133,27.4292405 C38.4149605,27.4292405 38.403426,27.4292405 38.403426,27.4638442 L38.403426,32.899513 C38.4062231,32.9239725 38.3977082,32.9483718 38.3803,32.96578 C38.3628918,32.9831882 38.3384925,32.9917031 38.314033,32.988906 L37.6277257,32.988906 C37.6032662,32.9917031 37.5788669,32.9831882 37.5614587,32.96578 C37.5440505,32.9483718 37.5355356,32.9239725 37.5383328,32.899513 L37.5383328,27.4782624 C37.5383328,27.4551933 37.5383328,27.4436587 37.5008454,27.4436587 L35.8485174,27.4436587 C35.8240579,27.4464559 35.7996586,27.437941 35.7822504,27.4205328 C35.7648422,27.4031246 35.7563273,27.3787252 35.7591245,27.3542657 L35.7591245,26.7775369 C35.7563273,26.7530774 35.7648422,26.7286781 35.7822504,26.7112699 C35.7996586,26.6938617 35.8240579,26.6853468 35.8485174,26.688144 L40.1739833,26.688144 C40.1955921,26.6857176 40.2172309,26.6924383 40.233663,26.7066794 C40.2500951,26.7209206 40.2598231,26.7413845 40.2604926,26.7631187 Z" id="Path"></path>
                        <path d="M49.0527229,27.4350078 L45.8461109,27.4350078 C45.836685,27.4341037 45.8273484,27.4374579 45.8206529,27.4441535 C45.8139575,27.450849 45.8106029,27.4601858 45.8115071,27.4696115 L45.8115071,29.4103039 C45.8115071,29.4362566 45.8115071,29.4477912 45.8461109,29.4477912 L48.049215,29.4477912 C48.0739434,29.4437514 48.099105,29.4518593 48.1168225,29.4695768 C48.1345396,29.4872942 48.1426475,29.5124558 48.1386079,29.5371842 L48.1386079,30.113913 C48.1426475,30.1386414 48.1345396,30.1638029 48.1168225,30.1815204 C48.099105,30.1992379 48.0739434,30.2073458 48.049215,30.2033059 L45.8461109,30.2033059 C45.8230417,30.2033059 45.8115071,30.2033059 45.8115071,30.2407933 L45.8115071,32.227624 C45.8106029,32.2370497 45.8139575,32.2463864 45.8206529,32.253082 C45.8273484,32.2597776 45.836685,32.2631318 45.8461109,32.2622277 L49.0527229,32.2622277 C49.0771825,32.2594306 49.1015817,32.2679454 49.11899,32.2853536 C49.1363984,32.3027619 49.1449129,32.3271611 49.1421159,32.3516207 L49.1421159,32.9283494 C49.1449129,32.952809 49.1363984,32.9772083 49.11899,32.9946165 C49.1015817,33.0120247 49.0771825,33.0205396 49.0527229,33.0177424 L45.0358071,33.0177424 C45.010885,33.0215208 44.9856288,33.0134435 44.9675242,32.9959048 C44.9494196,32.9783661 44.940545,32.9533787 44.9435304,32.9283494 L44.9435304,26.7631187 C44.940545,26.7380895 44.9494196,26.7131021 44.9675242,26.6955634 C44.9856288,26.6780247 45.010885,26.6699474 45.0358071,26.6737258 L49.0527229,26.6737258 C49.0771825,26.6709286 49.1015817,26.6794435 49.11899,26.6968517 C49.1363984,26.7142599 49.1449129,26.7386592 49.1421159,26.7631187 L49.1421159,27.3398475 C49.1469284,27.3652168 49.1393167,27.3913576 49.1216371,27.4101777 C49.1039579,27.4289978 49.0783434,27.4382268 49.0527229,27.4350078 L49.0527229,27.4350078 Z" id="Path"></path>
                        <path d="M57.4527779,32.939884 L56.1897417,30.2407933 C56.1824321,30.2273865 56.1671988,30.2203558 56.1522542,30.2234914 L54.8546146,30.2234914 C54.8451888,30.2225874 54.8358521,30.2259416 54.8291567,30.2326371 C54.8224609,30.2393327 54.8191067,30.2486695 54.8200109,30.2580952 L54.8200109,32.9225822 C54.8229963,32.9476114 54.8141217,32.9725989 54.7960171,32.9901375 C54.7779125,33.0076762 54.7526563,33.0157535 54.7277342,33.0119751 L54.0414271,33.0119751 C54.0169675,33.0147723 53.9925684,33.0062574 53.97516,32.9888492 C53.9577517,32.971441 53.9492367,32.9470417 53.9520342,32.9225822 L53.9520342,26.7631187 C53.9479942,26.7383903 53.9561021,26.7132288 53.9738196,26.6955113 C53.9915371,26.6777939 54.0166984,26.6696859 54.0414271,26.6737258 L56.469455,26.6737258 C56.8015588,26.6663967 57.1300538,26.7438064 57.4239413,26.89865 C57.692055,27.0433429 57.91243,27.2627162 58.0583429,27.530168 C58.2126013,27.8190854 58.2900513,28.1427869 58.2832671,28.4702359 C58.29524,28.8534183 58.1796092,29.2297257 57.9545317,29.5400679 C57.7267779,29.8362706 57.40398,30.0450198 57.0404167,30.1312149 C57.0144638,30.1312149 57.0086967,30.1571676 57.0202313,30.1744695 L58.3294054,32.8822111 C58.3324354,32.8974414 58.3324354,32.9131193 58.3294054,32.9283494 C58.3294054,32.9716041 58.3063363,32.9917896 58.2573146,32.9917896 L57.5450542,32.9917896 C57.5069609,32.9933043 57.4712646,32.9732252 57.4527779,32.939884 Z M54.8200109,27.4609606 L54.8200109,29.4795113 C54.8200109,29.5054641 54.8200109,29.5169987 54.8546146,29.5169987 L56.3627604,29.5169987 C56.6470071,29.5291114 56.9239388,29.4250016 57.1298096,29.2286343 C57.3268821,29.029077 57.4314504,28.756154 57.4181742,28.4760032 C57.4370854,28.1907116 57.3319784,27.9111339 57.1298042,27.7089596 C56.9276296,27.5067852 56.6480521,27.401678 56.3627604,27.4205896 L54.8546146,27.4205896 C54.8416075,27.416792 54.8276246,27.4216761 54.8198104,27.432746 C54.8119963,27.4438159 54.8120767,27.4586271 54.8200109,27.4696115 L54.8200109,27.4609606 Z" id="Shape"></path>
                        <path d="M63.0960688,32.9139312 L63.0960688,26.7631187 C63.0920292,26.7383903 63.1001371,26.7132288 63.1178546,26.6955113 C63.1355721,26.6777939 63.1607334,26.6696859 63.1854617,26.6737258 L63.8717692,26.6737258 C63.8964975,26.6696859 63.9216592,26.6777939 63.9393767,26.6955113 C63.9570942,26.7132288 63.9652021,26.7383903 63.9611621,26.7631187 L63.9611621,32.9023966 C63.9639592,32.9268561 63.9554442,32.9512555 63.9380363,32.9686637 C63.9206279,32.9860719 63.8962288,32.9945868 63.8717692,32.9917896 L63.1854617,32.9917896 C63.1630867,32.994211 63.1407163,32.9871838 63.123745,32.9724024 C63.1067738,32.9576209 63.0967421,32.936427 63.0960688,32.9139312 Z" id="Path"></path>
                        <path d="M72.8600871,26.6852604 L73.5463946,26.6852604 C73.5711229,26.6812205 73.5962846,26.6893284 73.6140021,26.7070459 C73.6317192,26.7247634 73.6398275,26.7499249 73.6357875,26.7746533 L73.6357875,32.9139312 C73.6385846,32.9383907 73.6300696,32.9627901 73.6126617,32.9801983 C73.5952534,32.9976065 73.5708542,33.0061214 73.5463946,33.0033242 L72.8773892,33.0033242 C72.8324763,33.0021001 72.7912354,32.978224 72.7678109,32.939884 L69.9418396,28.3260537 C69.9418396,28.3058682 69.9274213,28.3001009 69.9158867,28.3029846 C69.9043521,28.3058682 69.898585,28.3029846 69.898585,28.3347047 L69.898585,32.9110476 C69.9013821,32.9355071 69.8928671,32.9599064 69.8754592,32.9773146 C69.8580509,32.9947228 69.8336517,33.0032377 69.8091921,33.0004406 L69.1228846,33.0004406 C69.0979629,33.0042189 69.0727063,32.9961416 69.0546021,32.9786029 C69.0364975,32.9610643 69.0276225,32.9360768 69.0306079,32.9110476 L69.0306079,26.7631187 C69.0276225,26.7380895 69.0364975,26.7131021 69.0546021,26.6955634 C69.0727063,26.6780247 69.0979629,26.6699474 69.1228846,26.6737258 L69.7890063,26.6737258 C69.8339196,26.6749499 69.87516,26.698826 69.898585,26.7371659 L72.7130213,31.3509962 C72.7130213,31.3682981 72.7303234,31.376949 72.7418579,31.3740654 C72.7533925,31.3711817 72.7591596,31.3596471 72.7591596,31.3423453 L72.7591596,26.7660024 C72.7570067,26.7401596 72.7678621,26.7149412 72.7881117,26.6987415 C72.8083613,26.6825417 72.8353475,26.6774872 72.8600871,26.6852604 L72.8600871,26.6852604 Z" id="Path"></path>
                        <path d="M79.616465,32.818771 C79.2915288,32.6561701 79.0217217,32.4014082 78.8407646,32.0863254 C78.6479567,31.7567525 78.5482871,31.3809984 78.5524004,30.9991917 L78.5524004,28.6922765 C78.5476746,28.3085717 78.64735,27.9308004 78.8407646,27.5993755 C79.0236659,27.2872707 79.2931009,27.034863 79.616465,26.8726972 C80.347155,26.5295502 81.19269,26.5295502 81.92338,26.8726972 C82.5730346,27.1899731 82.9809013,27.8540205 82.9701429,28.5769308 L82.9701429,28.6778583 C82.9731284,28.7028875 82.9642534,28.727875 82.9461492,28.7454136 C82.9280446,28.7629523 82.9027879,28.7710296 82.8778663,28.7672513 L82.1915592,28.7672513 C82.1670996,28.7700484 82.1427,28.7615335 82.1252921,28.7441253 C82.1078838,28.7267171 82.0993688,28.7023178 82.1021659,28.6778583 L82.1021659,28.5942326 C82.1125242,28.2619882 81.9790446,27.9414268 81.7359434,27.7147212 C81.4718454,27.4817788 81.1274504,27.3607751 80.77569,27.3773349 C80.4185013,27.359188 80.0691192,27.4860468 79.8067854,27.7291394 C79.5574417,27.9755366 79.42434,28.3161512 79.4405625,28.6663237 L79.4405625,31.0309118 C79.4247454,31.3750882 79.5545338,31.7100259 79.7981346,31.9536778 C80.0718788,32.19502 80.4283846,32.3210886 80.7929917,32.3054824 C81.1352375,32.3235602 81.4717863,32.2124065 81.7359434,31.9940488 C81.9745884,31.7717596 82.1014896,31.4545066 82.0819804,31.1289556 L82.0819804,30.4339975 C82.0828846,30.4245717 82.0795304,30.415235 82.072835,30.4085394 C82.0661392,30.4018439 82.0568025,30.3984896 82.0473767,30.3993937 L80.8275954,30.3993937 C80.8025663,30.4023792 80.7775788,30.3935044 80.76004,30.3753999 C80.7425013,30.3572955 80.7344242,30.332039 80.7382025,30.3071171 L80.7382025,29.7476902 C80.7354054,29.7232307 80.74392,29.6988314 80.7613284,29.6814232 C80.7787367,29.664015 80.8031359,29.6555001 80.8275954,29.6582972 L82.8461463,29.6582972 C82.8710679,29.6545189 82.8963246,29.6625962 82.9144292,29.6801349 C82.9325334,29.6976735 82.9414084,29.722661 82.9384229,29.7476902 L82.9384229,30.9011478 C82.9759796,31.493271 82.7612238,32.0736364 82.3472759,32.4986865 C81.9067821,32.8880307 81.33106,33.0889121 80.7439696,33.0581134 C80.3546329,33.067133 79.9685625,32.9851794 79.616465,32.818771 L79.616465,32.818771 Z" id="Path"></path>
                    </g>
                </g>
            </g>
        </g>
    </g>
</svg>