<?xml version="1.0" encoding="UTF-8"?>
<svg width="60px" height="30px" viewBox="0 0 60 30" version="1.1" xmlns="http://www.w3.org/2000/svg" xmlns:xlink="http://www.w3.org/1999/xlink">
    <title>6F593C15-1846-48E7-8332-FD9282043574</title>
    <g id="desktop" stroke="none" stroke-width="1" fill="none" fill-rule="evenodd" opacity="0.6">
        <g id="landing" transform="translate(-936, -2857)" fill="#FFFFFF" fill-rule="nonzero">
            <g id="Group-11" transform="translate(100, 2657)">
                <g id="Group-8-Copy-4" transform="translate(836, 150)">
                    <g id="Group" transform="translate(0, 50)">
                        <path d="M37.0830215,14.6513665 C37.0830215,19.4600662 37.0830215,24.2675996 37.0830215,29.0762992 C38.4760109,29.0762992 39.8690003,29.0762992 41.264322,29.0762992 C41.264322,25.3591342 41.264322,21.6419692 41.264322,17.924221 C42.1541093,17.9457952 43.0444796,17.9667862 43.93485,17.9871942 C44.9692423,18.0670768 45.676524,18.791268 45.6532006,20.0198275 C45.5768166,21.4262278 44.8328005,21.9795752 43.9150251,22.2594559 C43.3762548,22.267036 42.8369015,22.2734499 42.2992974,22.2804469 C42.2923004,23.4075497 42.2858864,24.5352355 42.2788894,25.6611721 C45.1225936,28.1626055 48.2560908,29.0757162 51.926026,29.0757162 C56.4571773,29.0757162 59.5311999,27.8127547 59.4623959,24.4792594 C59.3976735,21.3626716 54.3446614,19.6921339 54.720751,18.8606551 C55.2933402,17.738217 57.1248093,17.6221831 60,18.3422928 C59.9935861,17.194199 59.9865891,16.0461052 59.979592,14.8985945 C54.4128823,14.2869386 50.2735639,14.709675 50.0840614,17.9895265 C49.9831877,21.9959016 54.8828486,23.3346641 55.2583551,24.8530167 C54.479937,26.0780776 48.2899097,26.2629155 46.977386,24.1264931 C48.6747456,23.0361247 49.6945608,21.7189363 49.6694881,19.6868861 C49.5750284,16.3510585 47.3219891,14.867691 43.9546749,14.6507835 C41.663735,14.6513665 39.3722121,14.6513665 37.0830215,14.6513665 L37.0830215,14.6513665 Z M24.2038464,14.6513665 C25.4119979,14.6513665 26.6195664,14.6513665 27.8271348,14.6502004 C27.8271348,17.6787424 27.8271348,20.7043689 27.8271348,23.7317448 C27.7979806,25.1299819 28.6504504,25.7072358 30.1040806,25.7235621 C31.3378879,25.7737074 32.4935618,25.0792535 32.5058066,23.7533189 C32.5128036,20.718363 32.5198006,17.6851563 32.5262145,14.6507835 C33.720372,14.6507835 34.9151126,14.6507835 36.108687,14.6507835 C36.1279288,17.7207245 36.150086,20.7883331 36.1710771,23.8576911 C36.1658293,27.6384123 33.1413689,29.0762992 30.1250717,29.0762992 C26.0312339,29.0762992 24.1064713,27.3013894 24.1828554,23.9614801 C24.1898524,20.8583033 24.1974325,17.7557095 24.2038464,14.6513665 Z M12.7928786,21.8647075 C12.7928786,19.8349896 14.4482561,18.1796121 16.4773909,18.1796121 C18.5065257,18.1796121 20.1619032,19.8349896 20.1619032,21.8647075 C20.1619032,23.8955916 18.5065257,25.5492198 16.4773909,25.5492198 C14.4482561,25.5492198 12.7928786,23.8950085 12.7928786,21.8647075 Z M9.26579917,21.8647075 C9.26579917,25.8384298 12.5042517,29.0768823 16.4773909,29.0768823 C20.449947,29.0768823 23.6901488,25.8384298 23.6901488,21.8647075 C23.6895657,17.8921514 20.449947,14.6513665 16.4773909,14.6513665 C12.5042517,14.6513665 9.26579917,17.8915683 9.26579917,21.8647075 Z M0.0594746407,14.6513665 C0.0594746407,15.693922 0.0594746407,16.7353113 0.0594746407,17.7784498 C1.09678234,17.7784498 2.13525622,17.7784498 3.17314701,17.7784498 C3.17314701,21.5440109 3.17314701,25.3101551 3.17314701,29.0762992 C4.3824647,29.0762992 5.59119931,29.0762992 6.800517,29.0762992 C6.800517,25.2879979 6.800517,21.4991134 6.800517,17.7125613 C6.800517,17.7125613 9.93459733,17.8215981 9.93459733,17.7125613 C9.93459733,17.6029413 9.93459733,14.6513665 9.93459733,14.6513665 C6.64250104,14.6513665 3.35157093,14.6513665 0.0594746407,14.6513665 L0.0594746407,14.6513665 Z M59.6443183,0.0246865221 C52.3481793,-0.302424002 49.3003955,2.64856773 49.2986463,7.2531877 C49.3237189,12.6706278 53.9709041,13.8595375 59.6647263,13.5318439 C59.6588954,12.5318536 59.6513153,11.5318633 59.6443183,10.53129 C55.2857601,11.2560643 53.2659547,9.63625492 53.1703288,6.7004234 C53.2414651,4.64504978 54.3359151,2.95527029 59.6035024,2.93019764 C59.6174964,1.96227702 59.6303243,0.99319023 59.6443183,0.0246865221 L59.6443183,0.0246865221 Z M44.4613755,0.0246865221 C45.848534,0.0246865221 47.2345264,0.0246865221 48.6211018,0.0246865221 C48.6211018,4.52668359 48.6211018,9.02868065 48.6211018,13.5318439 C47.2345264,13.5318439 45.8491171,13.5318439 44.4613755,13.5318439 C44.4613755,9.02926374 44.4613755,4.52668359 44.4613755,0.0246865221 L44.4613755,0.0246865221 Z M33.376352,0.0246865221 C33.376352,0.999604161 33.376352,1.97510489 33.376352,2.95177178 C34.4148259,2.95177178 35.4532998,2.95177178 36.4917736,2.95177178 C36.4917736,6.47826812 36.4917736,10.0053475 36.4917736,13.532427 C37.7005083,13.532427 38.9092429,13.532427 40.1173944,13.532427 C40.1173944,9.98493958 40.1173944,6.43745219 40.1173944,2.8899648 C40.1173944,2.8899648 43.2520578,2.99258771 43.2520578,2.8899648 C43.2520578,2.78792497 43.2520578,0.0252696068 43.2520578,0.0252696068 C39.9611277,0.0246865221 36.6696145,0.0246865221 33.376352,0.0246865221 L33.376352,0.0246865221 Z M26.4522211,0.0246865221 C26.4522211,4.52668359 26.4522211,9.02868065 26.4522211,13.5318439 C29.5798875,13.5318439 32.7081369,13.5318439 35.8352203,13.5318439 C35.8352203,12.5382675 35.8352203,11.5446912 35.8352203,10.552281 C34.0999602,10.552281 32.3658662,10.552281 30.6317723,10.552281 C30.6317723,7.04269412 30.6317723,3.53369032 30.6317723,0.0246865221 C29.2387829,0.0246865221 27.8446274,0.0246865221 26.4522211,0.0246865221 L26.4522211,0.0246865221 Z M17.4779643,0.0246865221 C14.1462182,5.17973847 12.8622657,9.49106683 12.2331173,13.5318439 C13.7905365,13.5318439 15.3467896,13.5318439 16.9042089,13.5318439 C17.1817572,10.6228343 17.4732996,7.71557388 19.4657,5.01997325 C19.9391648,6.15407302 20.3181699,7.34764743 20.6330356,8.48116411 C19.8202155,8.507986 19.0073955,8.47591634 18.1945754,8.50332133 C18.0855385,9.53479818 17.9765017,10.566275 17.8668818,11.5971688 C19.0890273,11.6175768 20.311756,11.6379847 21.5344846,11.6589758 C21.7513921,12.2834595 21.9146558,12.9079432 22.026025,13.5318439 C23.4260114,13.5318439 24.8265809,13.5318439 26.2259842,13.5318439 C25.6154945,8.89748659 24.4271679,4.34009648 21.4318617,0.0246865221 C20.1135072,0.0246865221 18.7957357,0.0246865221 17.4779643,0.0246865221 L17.4779643,0.0246865221 Z M3.38072516,2.66431102 C3.38072516,3.34127237 3.38072516,4.01706755 3.38072516,4.69286273 C4.66526078,4.69286273 5.94921332,4.69286273 7.23316586,4.69286273 C7.87047745,4.59548758 8.38475817,4.29869746 8.38018667,3.56634307 C8.33577905,3.02115886 7.85531725,2.67014186 7.12995986,2.60308712 C5.88040933,2.62349509 4.63085879,2.64390305 3.38072516,2.66431102 L3.38072516,2.66431102 Z M0,0.0246865221 C2.711927,0.0246865221 5.42327091,0.0246865221 8.13461482,0.0246865221 C10.2599586,-0.00213537471 12.0132943,1.03808775 12.1532347,2.93486232 C12.2651869,5.0333842 11.0004762,5.95815656 8.99524786,6.14765909 C11.1334195,6.46194175 12.1427391,7.50099871 12.2181841,9.141216 C12.2342834,12.5231073 9.63022711,13.5557504 7.82732918,13.5318439 C5.21860818,13.5318439 2.60930409,13.5318439 0,13.5318439 C0,9.02868065 0,4.52668359 0,0.0246865221 Z M3.38072516,7.74122961 C3.38072516,8.68524376 3.38072516,9.62925791 3.38072516,10.572689 C4.66526078,10.572689 5.94921332,10.572689 7.23316586,10.572689 C7.87047745,10.4368302 8.38475817,10.0228401 8.38018667,8.99952642 C8.33577905,8.23801778 7.85531725,7.74880971 7.12995986,7.65493307 C5.88040933,7.68408731 4.63085879,7.71382463 3.38072516,7.74122961 Z" id="Shape"></path>
                    </g>
                </g>
            </g>
        </g>
    </g>
</svg>