<?xml version="1.0" encoding="UTF-8"?>
<svg width="45px" height="52px" viewBox="0 0 45 52" version="1.1" xmlns="http://www.w3.org/2000/svg" xmlns:xlink="http://www.w3.org/1999/xlink">
    <title>DB21B6E9-6F0E-415E-B442-2CD33F05A0A5</title>
    <defs>
        <linearGradient x1="49.9985158%" y1="99.9980315%" x2="49.9985158%" y2="0.00191258103%" id="linearGradient-1">
            <stop stop-color="#F0860A" offset="3.58139349%"></stop>
            <stop stop-color="#F0860A" offset="100%"></stop>
        </linearGradient>
        <linearGradient x1="49.9985158%" y1="99.9980315%" x2="49.9985158%" y2="0.00191258103%" id="linearGradient-2">
            <stop stop-color="#FFFFFF" offset="3.58139349%"></stop>
            <stop stop-color="#FFFFFF" offset="100%"></stop>
        </linearGradient>
        <linearGradient x1="50.0007354%" y1="99.9970296%" x2="50.0007354%" y2="-0.00783329428%" id="linearGradient-3">
            <stop stop-color="#F0860A" offset="3.85841837%"></stop>
            <stop stop-color="#F0860A" offset="100%"></stop>
        </linearGradient>
        <linearGradient x1="50.0007354%" y1="99.9970296%" x2="50.0007354%" y2="-0.00783329428%" id="linearGradient-4">
            <stop stop-color="#FFFFFF" offset="3.85841837%"></stop>
            <stop stop-color="#FFFFFF" offset="100%"></stop>
        </linearGradient>
        <linearGradient x1="50.0000785%" y1="99.9970296%" x2="50.0000785%" y2="-0.00783329428%" id="linearGradient-5">
            <stop stop-color="#F0860A" offset="0%"></stop>
            <stop stop-color="#F0860A" offset="100%"></stop>
        </linearGradient>
        <linearGradient x1="50.0000785%" y1="99.9970296%" x2="50.0000785%" y2="-0.00783329428%" id="linearGradient-6">
            <stop stop-color="#FFFFFF" offset="0%"></stop>
            <stop stop-color="#FFFFFF" offset="100%"></stop>
        </linearGradient>
    </defs>
    <g id="desktop" stroke="none" stroke-width="1" fill="none" fill-rule="evenodd" opacity="0.6">
        <g id="landing" transform="translate(-1145, -2846)" fill-rule="nonzero">
            <g id="Group-11" transform="translate(100, 2657)">
                <g id="Group-8-Copy" transform="translate(1045, 150)">
                    <g id="Group" transform="translate(0, 39)">
                        <path d="M15.5877863,14.3259538 C15.1544082,14.3259538 14.3477115,14.3259538 14.0871661,16.3974325 C13.8728535,18.1039138 13.7216248,19.5703673 13.7216248,22.9109337 C13.7216248,24.2222526 13.7579197,25.4516948 13.8080412,26.521693 C14.8083107,24.0335054 15.792161,21.3613108 16.3387446,19.3350797 C16.7565677,17.7884733 16.7911342,16.9597956 16.7911342,16.2431597 C16.7911342,16.2237678 16.7401486,14.3259538 15.5877863,14.3259538 L15.5877863,14.3259538 Z M20.4586449,27.5636809 C20.4586449,27.5679902 20.4586449,27.5727304 20.4582128,27.5774706 C20.4582128,27.5878129 20.4577807,27.6007408 20.459077,27.6166852 L20.459077,27.5710067 C20.459077,27.5684211 20.459077,27.5662664 20.4586449,27.5636809 L20.4586449,27.5636809 Z M30.7983634,24.9427669 C30.0512939,24.9427669 29.4580455,25.1806401 28.9849159,25.6697452 C28.3069795,26.3708677 27.8934772,27.5757469 27.8070608,29.0559902 C31.3414903,28.8663811 33.129877,28.0881222 33.129877,26.7350032 C33.129877,26.5514272 33.0642006,24.9427669 30.7983634,24.9427669 L30.7983634,24.9427669 Z M22.4907258,2.55640388 C22.1074692,2.55640388 21.7289656,2.6731858 21.4057683,2.90416408 L3.16975418,15.0706002 C2.54928466,15.5140267 2.53545804,16.1836914 2.55922254,16.4500059 C2.58255496,16.7158894 2.71736449,17.3721953 3.44326199,17.7147843 L4.182554,18.0629754 C5.91088139,18.8778634 7.02738086,20.6390727 7.02738086,22.5493838 L7.02738086,32.6783846 C7.02738086,33.0356252 7.10990851,34.8170883 8.72935125,34.8170883 L8.94193551,34.8170883 C9.55635589,34.8089006 10.1383701,34.402534 10.6547079,33.6100544 C10.8007516,33.3851091 11.1688853,32.6348607 11.6571378,31.561415 C11.6022634,31.2451126 11.5672648,30.9464784 11.5495494,30.6745618 C11.5097979,30.3035314 11.1688853,27.0401014 11.1688853,22.9109337 C11.1688853,19.4294533 11.3369651,17.820793 11.5551665,16.0798373 C12.0257036,12.334197 14.2833312,11.7752813 15.5877863,11.7752813 C18.3431722,11.7752813 19.3430096,14.447045 19.3430096,16.2431597 C19.3430096,17.2959207 19.2514083,18.3379086 18.8024752,19.9995732 C17.89856,23.3491891 15.8154934,28.4871631 14.3299961,31.8255748 C14.6678841,33.098541 15.4732846,34.8153646 17.3636427,34.8153646 C19.1274008,34.8153646 20.205877,33.6992568 20.4016101,31.6713021 C20.4266709,31.4071422 20.4517316,30.9089875 20.4586449,30.7603168 C19.8239167,30.4875384 19.2954806,30.1544298 18.8824104,29.7622838 C18.2217572,29.136574 17.8843013,28.3570223 17.9076337,27.5085219 C17.9495457,25.9610536 18.9995046,24.9212204 20.5204326,24.9212204 C21.2100352,24.9212204 21.8110611,25.162541 22.259562,25.6193264 C22.9962616,26.3691439 23.0148411,27.3964802 23.0113844,27.5947078 L23.0118165,28.8629337 C23.610682,28.9754063 24.3473815,29.0607304 25.2500005,29.0900336 C25.3454906,26.9000493 26.0052795,25.0806644 27.1494323,23.8973316 C28.1013086,22.9122265 29.3634196,22.3916635 30.7983634,22.3916635 C34.0044107,22.3916635 35.6821845,24.5764767 35.6821845,26.7350032 C35.6821845,30.5866522 31.1967429,31.4217938 28.0978519,31.6027842 C28.7356047,33.3661483 30.3926385,34.8153646 33.2076517,34.8153646 C35.5201538,34.8153646 38.007649,33.1127616 38.007649,29.3731544 L37.9722182,22.7411475 L37.9722182,22.7342526 L37.9722182,22.5493838 C37.9722182,20.6390727 39.0895819,18.8778634 40.8179094,18.0629754 L41.556769,17.7147843 C42.2826666,17.3721953 42.4174763,16.7158894 42.4408085,16.4495749 C42.4654373,16.1836914 42.4507466,15.5140267 41.7965745,15.0477609 L23.6275332,2.92700335 C23.2801394,2.67878789 22.8826241,2.55640388 22.4907258,2.55640388 L22.4907258,2.55640388 Z M8.72935125,37.3681917 C6.26475641,37.3681917 4.47550551,35.3958268 4.47550551,32.6783846 L4.47550551,22.5493838 C4.47550551,21.6215923 3.93281073,20.766197 3.09370778,20.3701727 L2.35484783,20.0219815 C1.02317159,19.3941171 0.149502106,18.1439902 0.0172850626,16.6783986 C-0.115364063,15.2128069 0.52152457,13.8273682 1.71925544,12.9719729 L19.9552696,0.805536813 C21.4645314,-0.272218175 23.5363639,-0.272218175 25.0780319,0.827945156 L43.2470734,12.9491336 C44.4780746,13.8273682 45.1153951,15.2128069 44.9827463,16.6783986 C44.8513932,18.1444211 43.9777238,19.3941171 42.6456155,20.0219815 L41.9067555,20.3701727 C41.0672203,20.766197 40.5245258,21.6215923 40.5245258,22.5493838 L40.5245258,22.7308051 L40.5599562,29.3662595 C40.5599562,33.9302351 37.3988456,37.3668989 33.2076517,37.3668989 C28.6798661,37.3668989 26.1647177,34.6236009 25.453511,31.6476009 C24.5578054,31.62864 23.7303686,31.5601222 22.97725,31.4429093 C22.9660158,31.6148503 22.9539176,31.7889458 22.9418193,31.9152082 C22.61819,35.278183 20.4806811,37.3668989 17.3636427,37.3668989 C15.2123072,37.3668989 13.7890296,36.2499293 12.8877069,34.8450987 C12.8518441,34.9084454 12.8203021,34.9614497 12.7922168,35.0032499 C11.7975644,36.5304645 10.4715052,37.3470761 8.95878671,37.3677607 L8.72935125,37.3681917 Z" id="Fill-1" fill="#FFFFFF"></path>
                        <path d="M29.6937462,41.2238914 C29.4690636,41.2238914 29.2720343,41.3005967 29.1078432,41.4514222 C28.9410596,41.6061261 28.8568037,41.7987516 28.8568037,42.0254205 C28.8568037,42.2525205 28.9410596,42.4447149 29.1078432,42.5994187 C29.2720343,42.750675 29.4690636,42.8273804 29.6937462,42.8273804 C29.9283666,42.8273804 30.1301488,42.750675 30.2956362,42.5994187 C30.4606914,42.4447149 30.5462436,42.2525205 30.5462436,42.0254205 C30.5462436,41.7987516 30.4606914,41.6061261 30.2956362,41.4514222 C30.1301488,41.3005967 29.9283666,41.2238914 29.6937462,41.2238914" id="Fill-3" fill="#FFFFFF"></path>
                        <path d="M25.3826064,49.4237926 C25.2205757,49.4836917 25.0408297,49.5319561 24.8489853,49.5672922 C24.3123397,49.6676989 23.7903848,49.6465831 23.3129344,49.5056691 C23.0338095,49.4237926 22.7810416,49.2945138 22.5593836,49.1230036 C22.339454,48.9523555 22.1571154,48.7325814 22.0158247,48.4701453 C21.8771264,48.2094331 21.7920063,47.8931306 21.764353,47.5285642 C21.7652172,46.6615336 21.9920602,46.0375478 22.439697,45.6759977 C22.8951112,45.3066909 23.5289753,45.1196677 24.3231417,45.1196677 C24.4795553,45.1196677 24.6774488,45.1386283 24.9099088,45.1752576 C25.1000249,45.2054226 25.259031,45.2489466 25.3826064,45.3036745 L25.3826064,49.4237926 Z M25.3826064,43.6756225 C25.2318098,43.6178778 25.0490392,43.5743538 24.8364549,43.5463436 C24.5275164,43.50756 24.2604899,43.4877369 24.0202523,43.4877369 C23.4192265,43.4877369 22.8795563,43.598486 22.4163646,43.8165365 C21.9553332,44.0354486 21.5617067,44.3297737 21.2449907,44.6913234 C20.9278426,45.0528735 20.6845805,45.4657039 20.5225498,45.919904 C20.359655,46.3732417 20.2766952,46.8429552 20.2766952,47.3174088 C20.2766952,47.9569081 20.3894686,48.5296135 20.6119908,49.0187189 C20.8353771,49.5086859 21.1425873,49.9232399 21.5241156,50.2511775 C21.9043476,50.5773911 22.3485277,50.8281922 22.841101,50.9949619 C23.3332422,51.1625937 23.8560612,51.2474869 24.3952994,51.2474869 C24.8057771,51.2474869 25.2296494,51.2005154 25.6548179,51.1070037 C26.0799865,51.0152157 26.4986738,50.8734398 26.9005099,50.6872782 L26.9718034,50.6545276 L26.9718034,41.5558796 L25.3826064,41.5558796 L25.3826064,43.6756225 Z" id="Fill-5" fill="#FFFFFF"></path>
                        <polygon id="Fill-7" fill="#FFFFFF" points="28.9432632 51.1027805 30.4594384 51.1027805 30.4594384 43.6606262 28.9432632 43.6606262"></polygon>
                        <path d="M34.4981074,41.3686837 L32.9957588,41.3686837 L32.9957588,43.6465777 L31.6986491,43.6465777 L31.6986491,45.1048436 L32.9815001,45.1048436 L32.9815001,48.4419625 C32.9815001,48.7931702 33.0527936,49.1361901 33.1936523,49.4641277 C33.334511,49.7903412 33.534997,50.0803571 33.7907894,50.3255558 C34.0457177,50.5707549 34.3464467,50.7702752 34.6843347,50.9198079 C35.0274076,51.0702022 35.4080718,51.146046 35.8172532,51.146046 L35.9403966,51.146046 L35.9403966,49.6158148 L35.8172532,49.6158148 C35.4707236,49.6158148 35.1803646,49.5248887 34.9284609,49.3370035 C34.6813101,49.1538583 34.5395873,48.929775 34.4981074,48.6725101 L34.4981074,45.1048436 L35.9550873,45.1048436 L35.9550873,43.6465777 L34.4981074,43.6465777 L34.4981074,41.3686837 Z" id="Fill-9" fill="#FFFFFF"></path>
                        <path d="M42.7823694,48.2479582 C42.6596583,48.529355 42.4885539,48.7814488 42.2733767,48.9951902 C42.0594962,49.2106547 41.8054324,49.381734 41.5193941,49.502825 C40.9490461,49.7506097 40.2417282,49.7471621 39.6614421,49.502825 C39.3706513,49.3800101 39.1148586,49.2106547 38.900978,48.9951902 C38.6858013,48.7814488 38.5125364,48.529355 38.3850724,48.2458034 C38.2576084,47.965699 38.1932282,47.6580153 38.1932282,47.3318017 C38.1932282,47.0047261 38.2576084,46.6970424 38.3850724,46.4165072 C38.5112402,46.1342484 38.6845051,45.8856017 38.8996818,45.6748772 C39.1131304,45.4663073 39.369787,45.297814 39.6614421,45.1741371 C39.9518013,45.0517529 40.2659247,44.9892683 40.595171,44.9892683 C40.9226892,44.9892683 41.2346521,45.0508913 41.5193941,45.1741371 C41.8062963,45.297814 42.0616567,45.4663073 42.2746733,45.6748772 C42.4894177,45.8856017 42.6596583,46.1342484 42.7823694,46.4143524 C42.9046486,46.6953188 42.9668682,47.0038641 42.9668682,47.3318017 C42.9668682,47.6601701 42.9046486,47.9678538 42.7823694,48.2479582 M44.227683,45.7972613 C44.0198516,45.3241006 43.7346776,44.9030822 43.3795063,44.5484272 C43.0251993,44.1937723 42.6021911,43.9084968 42.1225805,43.7007886 C41.1581737,43.2814942 40.0006265,43.2866653 39.0517746,43.7007886 C38.5734602,43.9076348 38.1474274,44.1929103 37.7887995,44.5475653 C37.4267149,44.904375 37.1385163,45.3249626 36.9332774,45.7972613 C36.7241498,46.2725768 36.6191539,46.7888304 36.6191539,47.3318017 C36.6191539,47.8639999 36.7241498,48.3750823 36.9332774,48.8516906 C37.1402447,49.3261441 37.4280111,49.7463005 37.7887995,50.1009554 C38.1474274,50.4556104 38.5734602,50.7408859 39.0517746,50.9477322 C39.5309533,51.1558712 40.0498837,51.2610179 40.595171,51.2610179 C41.1305206,51.2610179 41.6442658,51.1558712 42.1225805,50.9477322 C42.6021911,50.740024 43.0251993,50.4547488 43.3786424,50.1009554 C43.7338137,49.7471621 44.0189877,49.3270057 44.227683,48.8516906 C44.4346502,48.3776679 44.5400782,47.8661543 44.5400782,47.3318017 C44.5400782,46.7866756 44.4346502,46.2708528 44.227683,45.7972613" id="Fill-10" fill="#FFFFFF"></path>
                        <path d="M4.68359612,43.6323141 L2.45362174,46.52299 C2.45102925,46.5225588 2.44886884,46.52299 2.44541218,46.5225588 L2.44541218,41.5849673 L0.872202194,41.5849673 L0.872202194,51.0882583 L2.44541218,51.0882583 L2.44541218,48.1730194 C2.59059168,48.1885329 2.74398073,48.2122339 2.9328005,48.2462776 C3.28753969,48.3096242 3.59647821,48.4401959 3.85486316,48.633683 C4.10935934,48.8258778 4.31200574,49.1085677 4.45675315,49.4748578 C4.60409306,49.8493358 4.67841116,50.3556778 4.67841116,50.979664 L4.67841116,51.1029098 L6.25421361,51.1029098 L6.2524853,50.9775093 C6.24211534,50.4220412 6.1902655,49.9342287 6.0973679,49.5252766 C6.00447033,49.1124461 5.88435158,48.7543436 5.74176457,48.4604493 C5.59917756,48.1635391 5.43714686,47.9148924 5.26042539,47.7235597 C5.07981518,47.5296414 4.91087118,47.3766615 4.74322342,47.2607413 C4.57125485,47.1379263 4.4079279,47.0504479 4.25713134,46.9983051 C4.20398529,46.9797753 4.15516003,46.962969 4.11324809,46.9500411 L6.65302517,43.6323141 L4.68359612,43.6323141 Z" id="Fill-11" fill="#FFFFFF"></path>
                        <path d="M11.76572,44.928895 L11.76572,43.3835815 L11.6183801,43.3874599 C11.4377699,43.3874599 11.232531,43.3999566 11.005688,43.4240888 C10.7719317,43.4490826 10.5377434,43.4990705 10.3109004,43.5736215 C10.0793045,43.6486032 9.86326363,43.7584903 9.66925887,43.9015587 C9.58802747,43.9623197 9.51370941,44.0286832 9.44803296,44.1028029 L9.44803296,43.6468793 L7.90290832,43.6468793 L7.90290832,51.1174753 L9.46142751,51.1174753 L9.46142751,46.9857221 C9.46142751,46.6608013 9.52407936,46.368631 9.64419812,46.1165372 C9.76647728,45.8631506 9.93153254,45.645962 10.1333148,45.4714355 C10.3368253,45.2947543 10.5761987,45.1598734 10.8423611,45.0693782 C11.1124122,44.9775902 11.3924013,44.9314806 11.6749828,44.9314806 L11.76572,44.928895 Z" id="Fill-12" fill="#FFFFFF"></path>
                        <path d="M14.3442548,45.8656498 C14.4734473,45.6467377 14.641095,45.4631617 14.8424451,45.3192309 C15.0455236,45.1757314 15.2801441,45.0649827 15.5406894,44.9917246 C16.0812238,44.8413302 16.7198407,44.8219384 17.1851929,45.0826506 C17.4046905,45.2041727 17.5109826,45.4080026 17.5109826,45.7092224 C17.5109826,45.8772849 17.4738236,46.0082874 17.3964809,46.1125725 C17.3200024,46.2194432 17.2137103,46.30606 17.0832216,46.3698375 C16.9458195,46.4366317 16.7868134,46.4810173 16.6096599,46.5021328 C16.1935651,46.5551371 15.3656963,46.5301433 15.3656963,46.5301433 L14.1117947,46.538762 C14.1485217,46.2901154 14.2353702,46.0509494 14.3442548,45.8656498 M16.1503569,49.6190467 C15.3255127,49.6190467 14.3291319,49.3436827 14.1346951,48.0789044 C14.3343169,48.0780424 15.6966709,48.0840755 15.902774,48.0840755 C16.414791,48.0840755 16.8939697,48.0625289 17.3290761,47.939714 C17.7810337,47.8138827 18.1742282,47.5350711 18.4965613,47.1114675 C18.8106848,46.7076862 18.9696909,46.2651216 18.9696909,45.79627 C18.9696909,45.3498271 18.8513005,44.9434606 18.6175442,44.5896672 C18.3863804,44.2375978 18.0917006,43.9579243 17.7369614,43.7558184 C17.2802509,43.5067409 16.7600243,43.3796168 16.1914047,43.3796168 C15.6716102,43.3796168 15.1859502,43.4602005 14.7499796,43.618352 C14.3153053,43.7752102 13.9329129,44.0023103 13.6140365,44.2914638 C13.294728,44.5801869 13.0389355,44.9270851 12.8496837,45.3244021 C12.6751226,45.6919853 12.5666701,46.097921 12.5282148,46.5357453 C12.4029111,46.5495351 11.6657795,46.5585847 11.6657795,46.5585847 L11.6657795,48.0961414 C11.6657795,48.0961414 12.3571104,48.1073457 12.4966728,48.0970034 C12.7265404,50.4154047 14.5265933,51.2470991 16.1503569,51.2470991 C18.4200828,51.2470991 19.1874601,49.5703519 19.192213,48.7981258 L17.5585116,48.7981258 C17.5256734,48.931283 17.2996946,49.6190467 16.1503569,49.6190467" id="Fill-13" fill="#FFFFFF"></path>
                        <path d="M14.9148621,23.6573038 C13.2690623,28.1088068 11.0693337,32.9714167 10.6549672,33.6104854 L10.6549672,33.6104854 C10.2431932,34.2413663 9.7903714,34.62317 9.31248891,34.7584819 L9.31248891,34.7584819 L12.9359272,34.7584819 C13.7033046,33.3639936 16.0227199,28.1376791 17.6270398,23.6573038 L17.6270398,23.6573038 L14.9148621,23.6573038 Z" id="Fill-15" fill="url(#linearGradient-2)"></path>
                        <path d="M20.4256339,27.4016513 C20.4424851,27.4434515 20.45804,27.5188642 20.4593362,27.5710067 L20.4593362,27.5710067 L20.4593362,30.7465271 C20.4532871,30.8762369 20.4273622,31.3989545 20.4010052,31.6713021 L20.4010052,31.6713021 C20.2320612,33.4346661 19.3929583,34.5081118 18.0176418,34.7584819 L18.0176418,34.7584819 L22.0779148,34.7584819 C22.5372178,33.9625549 22.8366506,33.0071839 22.9416464,31.9152082 L22.9416464,31.9152082 C22.9753488,31.5622768 23.0099154,30.8365914 23.0099154,30.8365914 L23.0099154,30.8365914 C23.0112116,30.8163377 23.0116437,30.7969458 23.0116437,30.7766922 L23.0116437,30.7766922 L23.0112116,27.5947078 C23.0120758,27.5580788 23.0099154,27.4865445 23.0051625,27.4016513 L23.0051625,27.4016513 L20.4256339,27.4016513 Z" id="Fill-18" fill="url(#linearGradient-4)"></path>
                        <path d="M25.4511778,27.4016513 C25.2839621,28.2355002 25.2126686,29.1477782 25.2459389,30.1203863 L25.2459389,30.1203863 C25.3025416,31.7458529 25.890605,33.4238928 27.030869,34.7584819 L27.030869,34.7584819 L32.3225753,34.7584819 C29.3088045,34.3977938 27.8721323,32.2091022 27.796518,30.0324767 L27.796518,30.0324767 C27.7628156,29.0499571 27.8613303,28.1557782 28.0734825,27.4016513 L28.0734825,27.4016513 L25.4511778,27.4016513 Z" id="Fill-21" fill="url(#linearGradient-6)"></path>
                    </g>
                </g>
            </g>
        </g>
    </g>
</svg>