<?xml version="1.0" encoding="UTF-8"?>
<svg width="80px" height="37px" viewBox="0 0 80 37" version="1.1" xmlns="http://www.w3.org/2000/svg" xmlns:xlink="http://www.w3.org/1999/xlink">
    <title>CC608028-DEC6-4E9B-A1EF-70B59CFB3DA5</title>
    <g id="desktop" stroke="none" stroke-width="1" fill="none" fill-rule="evenodd" opacity="0.6">
        <g id="landing" transform="translate(-518, -3004)" fill="#FFFFFF" fill-rule="nonzero">
            <g id="Group-11" transform="translate(100, 2657)">
                <g id="Group-8" transform="translate(418, 300)">
                    <g id="Group" transform="translate(0, 47)">
                        <path d="M18.4714549,0 L1.69429098,0 C0.966850829,0 0.920810313,0.285451197 0.920810313,2.15469613 L0.920810313,2.46777164 C0.920810313,4.35543278 0.966850829,4.60405157 1.69429098,4.60405157 L18.4714549,4.60405157 C19.2081031,4.60405157 19.281768,4.35543278 19.281768,2.46777164 L19.281768,2.15469613 C19.281768,0.313075506 19.2081031,0.0276243094 18.4714549,0.0276243094 L18.4714549,0 Z M18.4714549,8.28729282 L1.69429098,8.28729282 C0.966850829,8.28729282 0.920810313,8.57274401 0.920810313,10.441989 L0.920810313,10.7550645 C0.920810313,12.6427256 0.994475138,12.8913444 1.72191529,12.8913444 L18.4714549,12.8913444 C19.2081031,12.8913444 19.281768,12.6427256 19.281768,10.7550645 L19.281768,10.441989 C19.281768,8.60036832 19.2081031,8.31491713 18.4714549,8.31491713 L18.4714549,8.28729282 Z M3.68324125,28.9226519 C3.68324125,25.8655617 5.14732965,24.1896869 7.3664825,24.1896869 C8.19396459,24.2189158 9.00235285,24.446275 9.72375691,24.8526703 C10.0276243,25.0092081 10.2762431,24.9447514 10.6445672,23.9963168 L10.9300184,23.3425414 C11.2246777,22.5598527 11.2430939,22.2191529 10.9300184,22.053407 C9.70470387,21.3956465 8.33356298,21.0568196 6.94290976,21.06814 C2.97421731,21.06814 0,24.198895 0,28.9226519 C0,33.6464088 2.97421731,36.8324284 6.89686924,36.8324284 C8.3021796,36.8343235 9.68668637,36.4929383 10.9300184,35.8379374 C11.2799263,35.6721915 11.2615101,35.3314917 10.9300184,34.558011 L10.6537753,33.8674033 C10.2486188,32.946593 10,32.8453039 9.73296501,33.0018416 C9.00801496,33.4052663 8.19588375,33.6264693 7.3664825,33.6464088 C5.13812155,33.6464088 3.68324125,32.0073665 3.68324125,28.9226519 L3.68324125,28.9226519 Z M50.4511971,36.0773481 L50.4511971,21.1786372 C50.4511971,20.8471455 50.2946593,20.7274401 48.8029466,20.7274401 L48.6924494,20.7274401 C47.0718232,20.7274401 47.0441989,20.8471455 47.0441989,21.1786372 L47.0441989,26.0220994 C46.4337799,25.5557372 45.6852795,25.3062371 44.9171271,25.3130755 C42.0349908,25.3130755 40.1012891,27.5230203 40.1012891,31.2615101 C40.1012891,34.6961326 41.8416206,36.8508287 44.7053407,36.8508287 C45.7259503,36.9056065 46.7090433,36.458746 47.3388582,35.6537753 C47.3761128,35.8620747 47.4253039,36.0680617 47.4861878,36.2707182 C47.587477,36.5745856 47.7624309,36.6482505 48.9779006,36.6482505 L49.0976059,36.6482505 C50.267035,36.6482505 50.4235727,36.5285451 50.4235727,36.1049724 L50.4511971,36.0773481 Z M47.0441989,28.7108656 L47.0441989,32.3941068 C47.0441989,33.1307551 46.961326,33.4622468 46.7771639,33.6740331 C46.4319843,33.99326 45.9640113,34.1447621 45.4972376,34.0883978 C45.0089963,34.1201049 44.5323391,33.9307942 44.198895,33.572744 C43.7336141,32.8861049 43.5190022,32.0601744 43.5911602,31.2338858 C43.5911602,29.1620626 44.198895,28.0294659 45.4880295,28.0294659 C46.07818,28.0338984 46.6406823,28.2802012 47.0441989,28.7108656 L47.0441989,28.7108656 Z M67.8360958,36.1694291 L67.8360958,21.1786372 C67.8360958,20.8471455 67.679558,20.7274401 66.1786372,20.7274401 L66.06814,20.7274401 C64.4567219,20.7274401 64.4198895,20.8471455 64.4198895,21.1786372 L64.4198895,36.1694291 C64.4198895,36.4825046 64.4198895,36.6206262 66.06814,36.6206262 L66.1786372,36.6206262 C67.679558,36.6206262 67.8360958,36.4825046 67.8360958,36.1694291 L67.8360958,36.1694291 Z M55.8655617,32.1731123 L62.2191529,32.1731123 C62.6058932,32.1731123 62.6979742,32.0626151 62.6979742,30.9668508 C62.6979742,27.6703499 60.985267,25.2854512 57.6887661,25.2854512 C54.3922652,25.2854512 52.3756906,27.6979742 52.3756906,31.1694291 C52.3756906,34.640884 54.4383057,36.8324125 57.8268877,36.8324125 C59.3068269,36.8636319 60.7685244,36.5013851 62.0626151,35.7826888 C62.3296501,35.6353591 62.3480663,35.4696133 62.0626151,34.6685083 L61.8876611,34.2541436 C61.6390424,33.480663 61.4364641,33.3793738 61.1970534,33.480663 C60.2302426,33.9422041 59.1743959,34.1873115 58.1031308,34.198895 C57.522628,34.2549699 56.944436,34.0712757 56.5027408,33.6904437 C56.0610451,33.3096118 55.79425,32.7647544 55.7642726,32.1823204 L55.8655617,32.1731123 Z M59.2909761,30.0368324 L55.7550645,30.0368324 C55.893186,28.6279926 56.6022099,27.9005525 57.5966851,27.9005525 C58.7384899,27.9005525 59.1896869,28.8950276 59.2449355,30.0368324 L59.2909761,30.0368324 Z M73.1675875,32.1731123 L79.5119705,32.1731123 C79.8987109,32.1731123 80,32.0626151 80,30.9668508 C80,27.6703499 78.2965009,25.2854512 74.9815838,25.2854512 C71.6666667,25.2854512 69.6777164,27.6979742 69.6777164,31.1694291 C69.6777164,34.640884 71.7955801,36.8232044 75.2025783,36.8232044 C76.6825175,36.8544238 78.144215,36.492177 79.4383057,35.7734807 C79.6961326,35.626151 79.7145488,35.4604052 79.4383057,34.6593002 L79.1896869,34.2449355 C78.9410681,33.4714549 78.7292818,33.3701657 78.4990792,33.4714549 C77.5350797,33.9316943 76.4825166,34.1767688 75.4143646,34.1896869 C74.8323614,34.2484393 74.2517256,34.065965 73.8079586,33.6848475 C73.3641915,33.3037301 73.0961183,32.7573129 73.0662983,32.1731123 L73.1675875,32.1731123 Z M76.5930018,30.0368324 L73.0662983,30.0368324 C73.1952118,28.6279926 73.9042357,27.9005525 74.907919,27.9005525 C76.0313076,27.9005525 76.5009208,28.8950276 76.5561694,30.0368324 L76.5930018,30.0368324 Z M34.6224678,28.8029466 L34.6224678,32.3296501 C34.6224678,33.1307551 34.5211786,33.4898711 34.2725599,33.7569061 C33.9668809,34.0359846 33.5626146,34.1817856 33.1491713,34.1620626 C31.7495396,34.1620626 31.3075506,32.9005525 31.3075506,31.1878453 C31.3075506,29.1896869 31.9152855,28.0570872 33.1952118,28.0570872 C33.7797442,28.0563457 34.3299198,28.3331421 34.6777164,28.8029466 L34.6224678,28.8029466 Z M38.0662983,36.0773481 L38.0662983,25.9484346 C38.0662983,25.6077348 37.8729282,25.5064457 36.5745856,25.5064457 L36.4364641,25.5064457 C35.174954,25.5064457 35.1104972,25.6629834 35.0828729,25.893186 L35.0368324,26.3720074 C34.4110221,25.6643957 33.5041743,25.2699674 32.5598527,25.2946593 C29.9631676,25.2946593 27.771639,27.4401473 27.771639,31.2707182 C27.771639,34.7237569 29.5395948,36.7955801 32.320442,36.7955801 C33.3352902,36.8474004 34.3115298,36.4005301 34.9355433,35.5985267 C34.9815838,35.7918969 35.0368324,36.0497238 35.0828729,36.2154696 C35.1289134,36.3812155 35.359116,36.5930018 36.5837937,36.5930018 L36.7403315,36.5930018 C37.9097606,36.5930018 38.0662983,36.4732965 38.0662983,36.0497238 L38.0662983,36.0773481 Z M22.0994475,22.2744015 C21.0589319,22.2744015 21.0036832,22.3480663 20.9023941,22.7071823 C20.7458564,23.3425414 20.4696133,24.6040516 20.3130755,25.4696133 L18.8581952,25.4696133 C18.5359116,25.4696133 18.4622468,25.53407 18.4622468,26.5837937 L18.4622468,26.7311234 C18.4622468,27.7900552 18.5359116,27.8453039 18.8581952,27.8453039 L20.1381215,27.8453039 L20.1381215,33.0570902 C20.1381215,35.4604052 20.9023941,36.8233115 23.6279926,36.8233115 C24.4758128,36.8267427 25.3154702,36.6575581 26.0957643,36.3259669 C26.4456722,36.1694291 26.519337,36.0773481 26.252302,35.1104972 L26.1970534,34.907919 C25.9484346,33.9871087 25.8103131,33.839779 25.441989,33.9871087 C25.0918203,34.1067393 24.7253745,34.1719543 24.3554328,34.1804788 C23.5819521,34.1804788 23.4346225,33.7384899 23.4346225,32.8913444 L23.4346225,27.8729282 L25.6445672,27.8729282 C25.9484346,27.8729282 26.0405157,27.8176796 26.0405157,26.7587477 L26.0405157,26.611418 C26.0405157,25.5616943 25.9484346,25.4972376 25.6445672,25.4972376 L23.4346225,25.4972376 L23.4346225,22.7348066 C23.4346225,22.3112339 23.3609576,22.3020258 22.0810313,22.3020258 L22.0994475,22.2744015 Z M14.9539595,25.5248619 L14.8618785,25.5248619 C13.213628,25.5248619 13.1767956,25.6629834 13.1767956,25.9944751 L13.1767956,36.1694291 C13.1767956,36.5009208 13.1767956,36.6206262 14.8618785,36.6206262 L14.9539595,36.6206262 C16.4456722,36.6206262 16.5837937,36.5009208 16.5837937,36.1694291 L16.5837937,25.9668508 C16.5837937,25.6353591 16.4456722,25.4972376 14.9539595,25.4972376 L14.9539595,25.5248619 Z M14.8618785,20.5524862 C14.191371,20.5043776 13.5501533,20.8348255 13.2002352,21.4088046 C12.8503171,21.9827837 12.8503171,22.7041408 13.2002352,23.2781199 C13.5501533,23.852099 14.191371,24.1825469 14.8618785,24.1344383 C15.5323859,24.1825469 16.1736036,23.852099 16.5235217,23.2781199 C16.8734398,22.7041408 16.8734398,21.9827837 16.5235217,21.4088046 C16.1736036,20.8348255 15.5323859,20.5043776 14.8618785,20.5524862 L14.8618785,20.5524862 Z" id="Shape"></path>
                    </g>
                </g>
            </g>
        </g>
    </g>
</svg>