<?xml version="1.0" encoding="UTF-8"?>
<svg width="120px" height="30px" viewBox="0 0 120 30" version="1.1" xmlns="http://www.w3.org/2000/svg" xmlns:xlink="http://www.w3.org/1999/xlink">
    <title>08FC2716-70E3-47D9-8CE5-610184F0D334</title>
    <g id="desktop" stroke="none" stroke-width="1" fill="none" fill-rule="evenodd">
        <g id="landing" transform="translate(-518, -2857)" fill="#FFFFFF" fill-rule="nonzero">
            <g id="Group-11" transform="translate(100, 2657)">
                <g id="Group-8-Copy" transform="translate(418, 150)">
                    <g id="Group" transform="translate(0, 50)">
                        <g transform="translate(89.9702, 0)">
                            <path d="M21.8159403,22.7898662 L21.8253919,22.764388 L21.3334977,22.0066161 L21.3150054,22.0066161 L20.8929709,22.7048018 L20.898724,22.724116 L21.8159403,22.7898662 Z M20.7918798,20.1491709 L20.7791407,20.1779367 L21.317882,21.1456985 L21.3441821,21.1456985 L21.8307341,20.1956071 L21.8196388,20.1721835 L20.7918798,20.1491709 Z M20.3665578,20.3295732 L20.3472436,20.3455999 L20.4105283,22.5831638 L20.4306643,22.6000123 L21.0285808,21.5574596 L21.0269371,21.5270501 L20.3665578,20.3295732 Z M22.3624895,22.6924736 L22.3698864,20.2564261 L22.3513941,20.2387557 L21.6322505,21.5430767 L21.6347161,21.5673221 L22.3464628,22.7117878 L22.3624895,22.6924736 Z M18.9299143,14.0306972 L18.8978611,14.0306972 C18.9147096,14.4247879 18.9475847,15.1020157 18.9475847,15.1020157 L19.2598985,15.6588383 C19.3692083,15.8392406 20.2013602,19.7945304 20.2013602,19.7945304 L21.243913,19.2742814 C21.1469313,19.1427808 21.0922764,18.9742958 21.094742,18.7893731 C21.094742,18.7117056 21.1033718,18.6385584 21.1235078,18.5686988 C21.0848795,18.5613019 20.8296862,18.5292486 20.7857158,18.4532248 C20.7409234,18.3755573 20.7174998,17.5536789 20.8161253,17.3560172 C20.8009205,17.3214983 20.7791407,17.2812262 20.7405124,17.2331464 C20.5938071,17.0404159 19.9909593,16.3751053 20.0012328,16.2629189 C20.0078078,16.161006 20.1175286,16.025396 20.1175286,16.025396 L18.9299143,14.0306972 Z M13.5490764,25.8924572 C13.5322279,25.8299945 13.4270275,24.8786702 13.4023711,24.6386817 C12.2899587,24.5433438 11.7577924,24.4426637 11.6172512,24.2733568 C11.463149,24.0872013 12.896505,15.3876184 13.0025273,15.2335162 C13.0740307,15.1324252 13.42374,14.8653147 13.4599026,14.7720315 C13.4935996,14.6902546 13.4681214,12.8936284 13.4623682,12.4473484 L13.410179,12.4473484 C13.3419631,12.4473484 11.4524646,14.295342 10.8409871,14.2300027 C10.4004603,14.1843884 9.92048326,13.9250858 9.67885101,13.7771477 L10.6548316,29.1844912 C11.713411,29.5128316 12.8208921,29.726109 13.9657688,29.8128172 L14.288356,29.2855822 L14.2978076,28.4501428 L13.8457745,26.0399844 C13.8461855,26.0403953 13.5675687,25.9656044 13.5490764,25.8924572 Z M15.1007828,0 C12.8833549,0 10.7826337,0.482853562 8.89108056,1.3491134 L9.44173909,10.0219852 C9.6735088,9.9932195 9.85432205,9.98664448 9.87980028,10.023629 C9.9513037,10.12472 10.2290986,10.8044135 10.2562206,10.9264624 C10.2730691,11.0004315 10.240194,11.0838521 10.1847172,11.1664509 C10.4481292,11.2437075 10.9248187,11.3768518 10.9408453,11.3768518 C10.9408453,11.3768518 12.2796852,9.56543179 12.6680228,9.34146993 C12.7691138,9.28270562 13.8367339,8.80355051 14.2789044,8.60547782 C14.3253406,8.5549323 14.3545172,8.50520865 14.3598595,8.45795065 C14.3783517,8.29110933 14.4745115,7.49635291 14.4954694,7.30074585 C14.511496,7.16102653 14.8118926,6.89391605 14.8759991,6.68433705 C14.9368181,6.47475806 14.9207915,5.43878033 14.9450369,5.34590807 C14.9811995,5.18728554 15.8528016,4.60662845 16.0685447,4.46526536 C16.1984014,4.3765025 17.1850665,4.41924017 17.3198545,4.4447184 C17.7484641,4.52485155 18.1096797,4.91072346 18.1146109,5.04674433 C18.1178985,5.18194333 18.0706404,6.58694446 18.0706404,6.58694446 C18.0706404,6.71145904 18.5563706,7.49224352 18.5563706,7.73223202 C18.5563706,7.97304239 18.5058251,8.52781031 18.5058251,8.64862644 C18.5058251,8.68150157 18.5345908,8.76410035 18.5723972,8.86601327 C18.8773141,9.0497031 19.986439,9.72076681 20.1775257,9.84199388 C20.4006657,9.98006945 21.1021389,13.1841624 21.1021389,13.1841624 L22.0242865,14.9836652 C22.0242865,14.9836652 22.2905751,14.910518 22.3542707,14.9602416 C22.4216647,15.0099653 22.4980994,17.093427 22.4980994,17.093427 L22.4980994,17.0958927 C22.6168608,17.330128 22.9172574,17.9379071 22.9172574,18.1224188 C22.9172574,18.3430931 22.6957612,18.5341799 22.4475539,18.6800633 C22.453307,18.7195134 22.4578274,18.7585527 22.4578274,18.8004685 C22.4545399,18.9985412 22.3855021,19.1793544 22.2741375,19.3141425 C22.6111077,19.47934 23.1786147,19.7653537 23.1786147,19.8035711 C23.1786147,19.9334278 23.1921757,20.0460252 23.1728616,23.041361 C23.1728616,23.041361 22.8013725,23.3401138 22.7701412,23.3401138 C22.7475395,23.3401138 21.5060922,23.2686104 20.7203764,23.2155993 C20.7742095,23.798311 20.8037971,24.2733568 20.7684563,24.4163636 C20.4171033,24.5906018 19.4937229,24.6859397 18.8744375,24.7303211 C18.7454026,25.1942715 18.33734,26.6391337 18.2309067,26.6325587 C18.1026937,26.6268056 17.9765354,26.6284493 17.9765354,26.6284493 C17.9765354,26.6284493 17.2027369,27.7375742 17.1973946,27.8411309 C17.1916415,27.9438657 17.4871068,28.894779 17.4871068,28.894779 L18.2341943,29.5247488 C24.9731862,28.0872835 30.0297931,22.0990774 30.0297931,14.9261337 C30.0289712,6.68433705 23.3450451,0 15.1007828,0 Z" id="Shape"></path>
                            <path d="M8.17974481,12.7641825 C7.98865808,12.5940537 7.65949578,11.8235427 7.67716616,11.3838378 C7.69565843,10.9618032 7.97016581,10.4633339 8.06468183,10.3125193 C8.08646161,10.2780004 8.17563541,10.2377283 8.30220469,10.199511 L7.77168218,1.82662475 C3.14039738,4.36129775 0,9.27736341 0,14.9294212 C0,21.2508989 3.93392098,26.6411884 9.48365489,28.8187553 L8.47562103,12.9178738 C8.36507839,12.8804783 8.25741232,12.8332203 8.17974481,12.7641825 Z" id="Path"></path>
                        </g>
                        <g transform="translate(0, 7.6509)">
                            <path d="M47.3028006,0.180402309 C47.9335922,0.180402309 48.4394584,0.68462471 48.4394584,1.31623826 C48.4394584,1.94620806 47.9340032,2.43276007 47.3028006,2.43276007 C46.671187,2.43276007 46.184635,1.94620806 46.184635,1.31623826 C46.184635,0.68462471 46.671187,0.180402309 47.3028006,0.180402309 Z" id="Path"></path>
                            <path d="M46.4558549,4.64566767 C46.4558549,4.47060757 46.5988617,4.32554604 46.7735109,4.32554604 L47.8481169,4.32554604 C48.0239988,4.32554604 48.1682385,4.47101851 48.1682385,4.64566767 L48.1682385,12.8019889 L46.7730999,12.8019889 C46.5980398,12.8019889 46.4554439,12.6573383 46.4554439,12.4826892 L46.4554439,4.64566767 L46.4558549,4.64566767 Z" id="Path"></path>
                            <path d="M62.2449609,0.180402309 C62.8773963,0.180402309 63.3816187,0.68462471 63.3816187,1.31623826 C63.3816187,1.94620806 62.8773963,2.43276007 62.2449609,2.43276007 C61.6141692,2.43276007 61.1276172,1.94620806 61.1276172,1.31623826 C61.1276172,0.68462471 61.6141692,0.180402309 62.2449609,0.180402309 Z" id="Path"></path>
                            <path d="M61.3971933,4.64566767 C61.3971933,4.47060757 61.5418439,4.32554604 61.716493,4.32554604 L62.7902772,4.32554604 C62.9661592,4.32554604 63.1112207,4.47101851 63.1112207,4.64566767 L63.1112207,12.8019889 L61.7160821,12.8019889 C61.541022,12.8019889 61.3967823,12.6573383 61.3967823,12.4826892 L61.3967823,4.64566767 L61.3971933,4.64566767 Z" id="Path"></path>
                            <path d="M58.4244591,0 L57.350675,0 C57.1731492,0 57.0313752,0.143006842 57.0313752,0.31929976 L57.0313752,5.06564754 C56.2736033,4.43403398 55.3539214,4.14678748 54.4334176,4.14678748 C53.6403049,4.14678748 52.9371879,4.3440383 52.3602293,4.68758347 C51.0793318,5.44453348 50.178964,6.86843781 50.178964,8.5643839 C50.178964,10.2595081 51.0616614,11.6657421 52.3425589,12.4235139 C52.9195176,12.7654154 53.7134521,12.9828022 54.471224,12.9828022 C55.4800797,12.9828022 56.3989398,12.6400789 57.0843864,12.0269576 L57.0843864,12.4826892 C57.0843864,12.6577493 57.2273932,12.8019889 57.4036861,12.8019889 L58.7441698,12.8019889 L58.7441698,0.31929976 C58.7437589,0.142595903 58.6003411,0 58.4244591,0 Z M57.0309643,10.1501983 C56.4531838,10.9264624 55.5692535,11.3595923 54.7042265,11.3595923 C53.0637572,11.3595923 51.8913477,10.077873 51.8913477,8.56397296 C51.8913477,7.08459183 52.9729397,5.76835357 54.6150527,5.76835357 C55.6415788,5.76835357 56.5074277,6.2906573 57.0309643,6.97610389 L57.0309643,10.1501983 Z" id="Shape"></path>
                            <path d="M73.3666194,4.32554604 L72.3466683,4.32554604 C72.1716082,4.32554604 72.0273686,4.46937476 72.0273686,4.64566767 L72.0273686,5.10139925 C71.2519263,4.43362305 70.3314225,4.14637654 69.3755779,4.14637654 C68.584109,4.14637654 67.8793483,4.34362736 67.3023896,4.68717253 C66.022314,5.44412254 65.1198915,6.86802688 65.1198915,8.56397296 C65.1198915,10.2590972 66.0034108,11.6653311 67.2855411,12.423103 C67.8616779,12.7650044 68.6547905,12.9823913 69.4125624,12.9823913 C70.42224,12.9823913 71.287267,12.6565165 71.9727136,12.0627093 L71.9727136,12.5307691 C71.9727136,13.5951016 71.8103927,14.2435637 71.503832,14.7136781 C71.0887834,15.342826 70.3671742,15.688015 69.4474922,15.688015 C68.1842651,15.688015 67.4153979,15.1020157 66.8252892,14.3845158 C66.8252892,14.3845158 66.8220017,14.3795845 66.8178923,14.3779408 C66.6991309,14.2834248 66.5331114,14.2920545 66.4196922,14.3882143 C66.4069531,14.4001315 66.3876389,14.4194456 66.3876389,14.4194456 L65.3907004,15.3424151 C65.9314964,16.1905936 67.3192381,17.309581 69.5202285,17.309581 C71.1976823,17.309581 72.4954283,16.5333169 73.1808749,15.2162568 C73.5227763,14.5501243 73.68592,13.7015349 73.68592,12.4399515 L73.68592,4.64566767 C73.6863301,4.46937476 73.5416795,4.32554604 73.3666194,4.32554604 Z M71.9727136,10.1501983 C71.3965769,10.9264624 70.5118248,11.3595923 69.6467978,11.3595923 C68.0055066,11.3595923 66.8343299,10.077873 66.8343299,8.56397296 C66.8343299,7.08459183 67.914689,5.76835357 69.5568021,5.76835357 C70.584972,5.76835357 71.4491771,6.2906573 71.9727136,6.97610389 L71.9727136,10.1501983 Z" id="Shape"></path>
                            <path d="M25.9569747,8.56397296 C25.9569747,6.05724383 24.2433582,4.14637654 21.8821015,4.14637654 C19.4838604,4.14637654 17.7517516,6.02108118 17.7517516,8.56397296 C17.7517516,11.1060429 19.6642627,12.9823913 22.1340073,12.9823913 C23.8657051,12.9823913 25.0738663,12.206949 25.7054799,11.3941112 C25.7054799,11.3941112 24.7722369,10.5081263 24.7697713,10.5056607 C24.663749,10.4349791 24.5306047,10.449362 24.4295137,10.5114138 C24.3917072,10.5356592 24.3267789,10.5997658 24.3267789,10.5997658 C23.8558425,11.0612505 23.2160102,11.4857507 22.1520886,11.4857507 C20.6735294,11.4857507 19.5019417,10.348271 19.411946,8.92477758 L25.6208264,8.92477758 C25.7942427,8.92477758 25.9434137,8.79779737 25.9561528,8.63999671 C25.9561528,8.63958577 25.9569747,8.58164335 25.9569747,8.56397296 L25.9569747,8.56397296 Z M19.5545419,7.48238098 C19.8434322,6.38270768 20.8362613,5.64260618 21.9359346,5.64260618 C22.9456122,5.64260618 23.9207709,6.40037806 24.1726767,7.48238098 L19.5545419,7.48238098 L19.5545419,7.48238098 Z" id="Shape"></path>
                            <path d="M83.8694035,8.56397296 C83.8694035,6.05724383 82.156198,4.14637654 79.7949413,4.14637654 C77.3967002,4.14637654 75.6645914,6.02108118 75.6645914,8.56397296 C75.6645914,11.1060429 77.5762806,12.9823913 80.0468471,12.9823913 C81.7789558,12.9823913 82.9862952,12.206949 83.6150322,11.3941112 C83.6150322,11.3941112 82.6854877,10.5081263 82.6822002,10.5056607 C82.575356,10.4349791 82.4434445,10.449362 82.3423534,10.5114138 C82.3037252,10.5356592 82.2396186,10.5997658 82.2396186,10.5997658 C81.7690933,11.0612505 81.1296719,11.4857507 80.0653393,11.4857507 C78.5859582,11.4857507 77.4127268,10.348271 77.323553,8.92477758 L83.5320224,8.92477758 C83.7054388,8.92477758 83.8570753,8.79779737 83.8681707,8.63999671 C83.8681707,8.63999671 83.8689926,8.63835296 83.8689926,8.63753108 L83.8681707,8.63835296 C83.8685816,8.61246379 83.8694035,8.58164335 83.8694035,8.56397296 L83.8694035,8.56397296 Z M77.4690255,7.48238098 C77.756272,6.38270768 78.7482792,5.64260618 79.8487744,5.64260618 C80.8592739,5.64260618 81.831967,6.40037806 82.0846946,7.48238098 L77.4690255,7.48238098 L77.4690255,7.48238098 Z" id="Shape"></path>
                            <path d="M14.8780538,0.180402309 C15.5080236,0.180402309 16.0138897,0.68462471 16.0138897,1.31623826 C16.0138897,1.94620806 15.5084345,2.43276007 14.8780538,2.43276007 C14.2472621,2.43276007 13.7598882,1.94620806 13.7598882,1.31623826 C13.7598882,0.68462471 14.2468512,0.180402309 14.8780538,0.180402309 Z" id="Path"></path>
                            <path d="M15.7422589,13.5235982 C15.7422589,14.6586123 15.5807598,15.3625511 15.2022848,15.9033471 C14.5891635,16.7876883 13.578664,17.3104029 12.4251577,17.3104029 C12.064764,17.3104029 11.6497154,17.255748 11.4154801,17.1826008 L11.7043703,15.9255378 C11.7438205,15.7537652 11.9172368,15.6391132 12.0902422,15.6719883 L12.4066654,15.688015 C12.8940393,15.688015 13.4171649,15.4706281 13.7052333,15.0917422 C13.9394687,14.7860034 14.0302862,14.3524626 14.0302862,13.5770203 L14.0302862,13.2568986 L14.0302862,4.64566767 C14.0302862,4.47060757 14.1741149,4.32554604 14.349586,4.32554604 L15.4225482,4.32554604 C15.5992521,4.32554604 15.741848,4.47101851 15.741848,4.64566767 L15.741848,13.2030656 L15.741848,13.5235982 L15.7422589,13.5235982 Z" id="Path"></path>
                            <path d="M35.3050196,5.64260618 C34.5834104,4.724568 33.4668886,4.14637654 32.2213319,4.14637654 C30.9950893,4.14637654 30.1296513,4.70319916 29.6784401,5.13838378 L29.6784401,4.64566767 C29.6784401,4.47060757 29.5346114,4.32554604 29.3599622,4.32554604 L28.3400111,4.32554604 C28.1633072,4.32554604 28.0190676,4.47101851 28.0190676,4.64566767 L28.0190676,12.4822782 C28.0190676,12.6573383 28.1637182,12.801578 28.3400111,12.801578 L29.4137952,12.801578 C29.5888553,12.801578 29.733095,12.6569274 29.733095,12.4822782 L29.733095,6.97651482 C30.2373174,6.36421541 31.0493333,5.76876451 32.1674988,5.76876451 C32.8706158,5.76876451 33.5198997,6.09381742 33.9164561,6.5988617 C34.2238386,6.97692576 34.4219113,7.48238098 34.4219113,8.5643839 L34.4313629,8.8820399 L34.4313629,12.4826892 C34.4313629,12.6577493 34.5743697,12.8019889 34.7506626,12.8019889 L35.8236249,12.8019889 L36.1342967,12.8019889 L36.1342967,8.65396865 C36.1351168,7.19349072 35.8458156,6.32805276 35.3050196,5.64260618 Z" id="Path"></path>
                            <path d="M42.9661592,6.13532228 C42.9678029,6.13532228 42.9719123,6.13532228 42.9743779,6.13778791 C42.9719123,6.13778791 42.9702685,6.13532228 42.9678029,6.13532228 L42.9661592,6.13532228 Z" id="Path"></path>
                            <path d="M38.6056833,10.7867431 L38.6106146,10.7867431 L38.6163677,10.7793462 C38.6122583,10.7826337 38.6097927,10.7842775 38.6056833,10.7867431 Z" id="Path"></path>
                            <path d="M37.8947585,11.8099817 C38.8312889,12.5677536 39.9667139,12.9828022 41.3191148,12.9828022 C42.9797202,12.9828022 44.4767717,11.990795 44.4767717,10.3856664 C44.4767717,8.6367092 42.7269925,8.0412583 41.392262,7.69771312 C40.5453163,7.48279192 39.8767182,7.28348641 39.8767182,6.70652777 C39.8767182,6.04039532 40.5806571,5.64301712 41.4103433,5.64301712 C41.9848363,5.64301712 42.5050854,5.84026793 42.967392,6.13573322 C42.9698576,6.13573322 42.9715014,6.13819885 42.973967,6.13819885 C43.1239598,6.22244139 43.32532,6.17764902 43.4280548,6.03875157 L43.8800879,5.41371304 L43.9051552,5.37672851 C44.0304917,5.20824344 44.0144651,5.05085373 43.8915942,4.92551727 L43.8537878,4.88853274 C43.2164211,4.45047155 42.3900224,4.14678748 41.3022663,4.14678748 C39.7867226,4.14678748 38.1635127,4.97524091 38.1635127,6.79693439 C38.1635127,7.98701432 39.0840165,8.6367092 40.1121864,8.97943249 C41.3560994,9.39448109 42.7631552,9.44831412 42.7631552,10.4218291 C42.7631552,11.0887834 42.0238756,11.4861616 41.2837741,11.4861616 C40.534221,11.4861616 39.769874,11.2309684 39.0552508,10.7477039 L39.0486757,10.7427726 C38.9171752,10.638394 38.7285541,10.6544207 38.6159568,10.7797571 L37.8947585,11.8099817 Z" id="Path"></path>
                            <path d="M11.4516427,5.4572726 C11.4516427,5.28056874 11.3086359,5.13715096 11.1315211,5.13715096 L6.04080626,5.13879472 L6.04080626,6.55448026 C6.05601101,6.71885595 6.18915531,6.84912367 6.35640757,6.84912367 L9.64761963,6.85158931 L9.64761963,10.0971871 C8.98148719,10.7641414 7.88058107,11.2704185 6.54667242,11.2704185 C3.86036286,11.2704185 1.80402309,9.33941523 1.80402309,6.48996281 C1.80402309,3.76584684 3.80652982,1.71238365 6.38435144,1.71238365 C7.61305965,1.71238365 8.80478333,2.21866075 9.56913025,2.91849021 L9.56748649,2.91849021 C9.56913025,2.92013397 9.570774,2.92013397 9.57159588,2.92177772 C9.69035731,3.03642976 9.87569089,3.0388954 10.0002055,2.93122932 C10.0067805,2.92629805 10.0137665,2.9246543 10.0186977,2.91849021 L10.0129446,2.91849021 L10.7748259,2.16934804 L10.7748259,2.16934804 L10.7748259,2.17263556 C10.7781134,2.16934804 10.7781134,2.16606053 10.7814009,2.16236208 C10.8841357,2.05140849 10.8898888,1.88949845 10.8056463,1.76827138 C10.7974275,1.75553227 10.7904416,1.74402597 10.7814009,1.73128686 L10.7814009,1.73128686 L10.780579,1.7296431 C10.7781134,1.72717746 10.7781134,1.72471183 10.7748259,1.72142432 L10.7748259,1.72471183 C9.6735088,0.651749574 8.0716678,0 6.38476237,0 C2.74178635,0 0,2.84780867 0,6.49037375 C0,10.2233455 2.77712712,12.9823913 6.54626148,12.9823913 C8.4941133,12.9823913 10.3679961,12.0080544 11.4516427,10.6379831 L11.4516427,5.4572726 Z" id="Path"></path>
                        </g>
                    </g>
                </g>
            </g>
        </g>
    </g>
</svg>