<?xml version="1.0" encoding="UTF-8"?>
<svg width="80px" height="36px" viewBox="0 0 80 36" version="1.1" xmlns="http://www.w3.org/2000/svg" xmlns:xlink="http://www.w3.org/1999/xlink">
    <title>C8914730-C5B8-41C1-B8D2-99383363DEFC</title>
    <g id="desktop" stroke="none" stroke-width="1" fill="none" fill-rule="evenodd">
        <g id="landing" transform="translate(-1071, -2004)" fill="#FFFFFF" fill-rule="nonzero">
            <g id="Group-10" transform="translate(100, 1701)">
                <g id="kaip-digitouch.lt" transform="translate(0, 265)">
                    <g id="Group-7" transform="translate(941, 0)">
                        <g id="Group" transform="translate(30.0025, 38)">
                            <path d="M21.7534795,8.95407951 L17.4414535,12.1743479 C15.4046171,10.4225352 12.7743979,10.0791733 11.3326111,10.0791733 C9.89082424,10.0791733 8.33236103,10.4975415 8.10400867,11.5492958 C7.8739895,12.5693808 8.82240187,13.3627802 10.4508709,13.8044837 C12.3076923,14.3045254 13.9995,14.7478957 16.6047171,15.4912909 C20.4783732,16.596383 23.1269272,18.2731894 23.1269272,22.1585132 C23.1269272,27.5156263 18.371531,30.2925244 12.0010001,30.2925244 C5.63046921,30.2925244 1.29010751,26.9739145 0,25.4254521 L4.55871323,22.0168347 C7.76064672,24.8087341 9.98749896,25.2021002 11.8493208,25.2021002 C13.9844987,25.2021002 15.9813318,24.7437286 16.2380198,23.5352946 C16.4463705,22.5652138 15.6413034,21.7934828 13.8228186,21.3684474 C11.7643137,20.8934078 10.0275023,20.5117093 8.08900742,20.0016668 C2.83523627,18.6232186 1.35344612,15.567964 1.35344612,12.824402 C1.35344612,9.04575381 4.87040587,5.16543045 11.3026086,5.16543045 C17.8981582,5.16543045 21.7601467,8.94407867 21.7601467,8.94407867 M49.2457705,5.54379532 L30.0158347,5.54379532 L30.0158347,29.5807984 L49.592466,29.5807984 L49.592466,24.0403367 L36.768064,24.0403367 L36.768064,20.1700142 L45.6021335,20.1700142 L45.6021335,14.8695725 L36.768064,14.8695725 L36.768064,11.0359197 L49.2407701,11.0359197 L49.2457705,5.54379532 Z M25.04042,35.1262605 L26.540545,35.1262605 L26.540545,0 L25.04042,0 L25.04042,35.1262605 Z M52.1176765,35.1262605 L53.6178015,35.1262605 L53.6178015,0 L52.1176765,0 L52.1176765,35.1262605 Z M57.0847571,29.5807984 L72.5260438,29.5807984 C76.6547212,29.5807984 80,27.0922577 80,23.1069256 C80,19.9983332 77.9648304,17.9398283 75.1129261,17.0280857 C75.0218907,17.0083874 74.9293092,16.9966752 74.8362364,16.9930828 C74.9296258,16.9845105 75.0221618,16.9683445 75.1129261,16.9447454 C76.7463955,16.2980248 78.5565464,14.5762147 78.5565464,11.6443037 C78.5565464,7.92566047 75.2662722,5.55379615 71.2059338,5.55379615 L57.0847571,5.55379615 L57.0847571,29.5807984 Z M63.8686557,10.5508792 L69.2624385,10.5508792 C70.5042087,10.5508792 71.5092924,11.5309609 71.5092924,12.6577215 C71.5092924,13.784482 70.5092091,14.7678973 69.2624385,14.7678973 L63.8686557,14.7678973 L63.8686557,10.5508792 Z M70.4658722,24.2403534 L63.8686557,24.2403534 L63.8686557,19.8583215 L70.4658722,19.8583215 C71.6422511,19.9042252 72.5722581,20.8712299 72.5722581,22.048504 C72.5722581,23.2257782 71.6422511,24.1927829 70.4658722,24.2386866 L70.4658722,24.2403534 Z" id="Shape"></path>
                        </g>
                    </g>
                </g>
            </g>
        </g>
    </g>
</svg>