<?xml version="1.0" encoding="UTF-8"?>
<svg width="200px" height="27px" viewBox="0 0 200 27" version="1.1" xmlns="http://www.w3.org/2000/svg" xmlns:xlink="http://www.w3.org/1999/xlink">
    <title>CD6A252E-0D03-4126-9258-F5B0FFAE3E30</title>
    <g id="desktop" stroke="none" stroke-width="1" fill="none" fill-rule="evenodd">
        <g id="landing" transform="translate(-756, -2008)" fill="#FFFFFF" fill-rule="nonzero">
            <g id="Group-10" transform="translate(100, 1701)">
                <g id="kaip-digitouch.lt" transform="translate(0, 265)">
                    <g id="Group-7" transform="translate(626, 0)">
                        <g id="Group" transform="translate(30, 42)">
                            <polygon id="Path" points="44.3156788 20.6724665 44.3156788 16.0532314 39.4535373 16.0532314 39.4535373 20.6724665 36.8139579 20.6724665 36.8139579 6.72315488 39.4535373 6.72315488 39.4535373 13.583499 44.3156788 13.583499 44.3156788 6.72315488 46.9552581 6.72315488 46.9552581 20.6724665"></polygon>
                            <path d="M58.9952199,15.7330784 C58.9952199,16.4191205 58.9024857,17.1051625 58.7172084,17.6997132 C58.5321224,18.3400191 58.2543021,18.8888528 57.8374761,19.3462715 C57.4669216,19.8036329 56.9575526,20.1694073 56.3556405,20.489675 C55.7537285,20.7640535 55.0590822,20.9011472 54.2718929,20.9011472 C53.5309751,20.9011472 52.8363289,20.7640535 52.2342256,20.489675 C51.6785851,20.2151052 51.1692161,19.8493308 50.7988528,19.3919694 C50.4282983,18.9345889 50.1042065,18.3857553 49.9189293,17.7454493 C49.733652,17.1051625 49.641109,16.4191205 49.641109,15.6873423 L49.641109,6.72315488 L52.2342256,6.72315488 L52.2342256,15.7330784 C52.2342256,16.0989675 52.2342256,16.4648566 52.3269598,16.8307457 C52.3732314,17.1966348 52.4657744,17.4710325 52.6047801,17.7454493 C52.7435946,18.0198662 52.9751434,18.2028107 53.2066922,18.3857553 C53.4845124,18.5229637 53.8087954,18.6144359 54.2718929,18.6144359 C54.6422562,18.6144359 54.966348,18.5686998 55.2443595,18.3857553 C55.5221797,18.2485468 55.7072658,18.0656023 55.892543,17.7911855 C56.0778203,17.5625048 56.1703633,17.2423709 56.2630975,16.922218 C56.3556405,16.602065 56.401912,16.2361759 56.401912,15.8702868 L56.401912,6.72315488 L59.0414914,6.72315488 L59.0414914,15.7330784 L58.9952199,15.7330784 Z" id="Path"></path>
                            <path d="M68.1636711,20.6724665 L65.5703633,15.4586616 C65.4778203,15.4586616 65.3390057,15.4129254 65.2462715,15.3671893 C65.1537285,15.3214532 65.0147228,15.2757361 64.9221797,15.2757361 C64.8294455,15.23 64.7369025,15.1842639 64.6443595,15.1385277 C64.5516252,15.0927916 64.5053537,15.0470554 64.4128107,15.0013193 L64.4128107,20.6724665 L61.8195029,20.6724665 L61.8195029,6.72315488 L65.2,6.72315488 C65.7556405,6.72315488 66.2650096,6.72315488 66.6818356,6.76889101 C67.0986616,6.81462715 67.4690249,6.86036329 67.7931166,6.95183556 C68.1173996,7.04330784 68.3952199,7.13478011 68.6730402,7.27198853 C68.9508604,7.40919694 69.1824092,7.59214149 69.4139579,7.77508604 C69.8307839,8.14095602 70.1548757,8.64405354 70.3864245,9.19288719 C70.6179732,9.74172084 70.7105163,10.3362715 70.7105163,11.0223136 C70.7105163,11.479675 70.6642447,11.8912811 70.5717017,12.3029063 C70.4789675,12.7145315 70.2936902,13.1261568 70.1086042,13.4920459 C69.923327,13.8579159 69.6455067,14.1780688 69.3214149,14.4524857 C68.9971319,14.7269025 68.6267686,15.0013193 68.2562141,15.1842639 L71.034608,20.6724665 L68.1636711,20.6724665 Z M68.0711281,11.0223136 C68.0711281,10.839369 68.0711281,10.6564245 67.9783939,10.4734799 C67.9321224,10.2905354 67.8395793,10.1075908 67.7468451,9.97038241 C67.6543021,9.833174 67.5152964,9.6959847 67.3764818,9.55877629 C67.2374761,9.46730402 67.0521989,9.37583174 66.8671128,9.28435946 C66.7743786,9.23862333 66.6818356,9.23862333 66.5428298,9.23862333 C66.4502868,9.23862333 66.3112811,9.19288719 66.1724665,9.19288719 C66.0334608,9.19288719 65.8946463,9.19288719 65.7556405,9.19288719 C65.5703633,9.19288719 65.3852772,9.19288719 65.2,9.19288719 L64.4128107,9.19288719 L64.4128107,12.5773231 C64.690631,12.7602677 64.9684512,12.9432122 65.2462715,13.0346845 C65.5240918,13.1261568 65.801912,13.1718929 66.0334608,13.1718929 C66.3112811,13.1718929 66.5892925,13.1261568 66.8671128,13.0346845 C67.0986616,12.9432122 67.3302103,12.85174 67.5152964,12.6687954 C67.7005736,12.4858509 67.8395793,12.2571702 67.9321224,12.0284895 C68.0246654,11.7540727 68.0711281,11.4339388 68.0711281,11.0223136 Z" id="Shape"></path>
                            <path d="M82.241109,20.6724665 L81.2223709,18.1570554 L75.7581262,18.1570554 L74.7393881,20.6724665 L71.86826,20.6724665 L78.1659656,6.49447419 L78.7680688,6.49447419 L85.1120459,20.6724665 L82.241109,20.6724665 Z M78.4902486,11.205239 L76.68413,15.7330784 L80.2961759,15.7330784 L78.4902486,11.205239 Z" id="Shape"></path>
                            <path d="M96.4110899,10.7021415 C95.9942639,10.1075908 95.4386233,9.65022945 94.7904398,9.33007648 C94.142065,9.00992352 93.3086042,8.82697897 92.3824092,8.82697897 C91.6877629,8.82697897 91.0393881,8.96418738 90.4837476,9.19286807 C89.9281071,9.42154876 89.418738,9.78743786 89.001912,10.1990631 C88.5852772,10.6564054 88.2609943,11.1595029 88.0294455,11.7083365 C87.7978967,12.3028872 87.7053537,12.897457 87.7053537,13.583499 C87.7053537,14.2237859 87.8443595,14.8640918 88.0759082,15.4586616 C88.307457,16.0532122 88.6315488,16.5563098 89.0481836,17.0136711 C89.4650096,17.4710325 89.9743786,17.7911663 90.5300191,18.0655832 C91.1321224,18.34 91.7340344,18.4772084 92.4286807,18.4772084 C92.8455067,18.4772084 93.2621415,18.4314723 93.632696,18.34 C94.0030593,18.2485277 94.3736138,18.1113193 94.6977055,17.9283748 C95.0217973,17.7454302 95.2998088,17.5625048 95.5776291,17.3795602 C95.8554493,17.1508795 96.0869981,16.967935 96.3185468,16.6935182 L98.3097514,18.4314723 C98.0319312,18.7058891 97.7539197,19.0260421 97.3835564,19.3003824 C97.0130019,19.5749522 96.6426386,19.8493308 96.1795411,20.0780115 C95.7164436,20.3066922 95.1608031,20.4894837 94.558891,20.6267686 C93.9567878,20.7640535 93.2621415,20.8554493 92.5212237,20.8554493 C91.7803059,20.8554493 91.0858509,20.7640535 90.4374761,20.5810707 C89.7891013,20.398088 89.1871893,20.1694073 88.6315488,19.8493308 C88.0759082,19.5290631 87.5665392,19.1632887 87.1497132,18.7058891 C86.6866157,18.2485277 86.3162524,17.7911663 86.0382409,17.2423518 C85.7141491,16.6935182 85.4826004,16.1446845 85.3437859,15.5043977 C85.2047801,14.8640918 85.1122371,14.2237859 85.1122371,13.5377629 C85.1122371,12.897457 85.2047801,12.2571511 85.3437859,11.6168642 C85.4826004,11.0222945 85.7141491,10.4277438 86.0382409,9.92464627 C86.3162524,9.37581262 86.6866157,8.91845124 87.1497132,8.46110899 C87.5665392,8.00374761 88.0759082,7.63785851 88.5852772,7.31770554 C89.1409178,6.99755258 89.6965583,6.76889101 90.3449331,6.58594646 C90.9931166,6.40300191 91.6414914,6.31152964 92.3361377,6.31152964 C92.9843212,6.31152964 93.5864245,6.35726577 94.142065,6.40300191 C94.6977055,6.49447419 95.2070746,6.6316826 95.6701721,6.81460803 C96.1332696,6.99755258 96.5963671,7.27196941 97.0594646,7.59212237 C97.4760994,7.91227533 97.9391969,8.32390057 98.3560229,8.82697897 L96.4110899,10.7021415 Z" id="Path"></path>
                            <path d="M109.238241,20.6724665 L108.219503,18.1570554 L102.755258,18.1570554 L101.73652,20.6724665 L98.865392,20.6724665 L105.163289,6.49447419 L105.765201,6.49447419 L112.109369,20.6724665 L109.238241,20.6724665 Z M105.441109,11.205239 L103.635182,15.7330784 L107.247036,15.7330784 L105.441109,11.205239 Z" id="Shape"></path>
                            <polygon id="Path" points="122.435755 20.6724665 116.045507 11.8455449 116.045507 20.6724665 113.405927 20.6724665 113.405927 6.72315488 115.536138 6.72315488 122.111663 16.0532314 122.111663 6.72315488 124.751243 6.72315488 124.751243 20.6724665"></polygon>
                            <path d="M145.26501,10.7021224 C144.848184,10.1075526 144.292543,9.6501912 143.644168,9.33003824 C142.995985,9.00988528 142.162333,8.82695985 141.236329,8.82695985 C140.541683,8.82695985 139.893308,8.96416826 139.337667,9.19282983 C138.782027,9.42151052 138.272658,9.78739962 137.855832,10.1990249 C137.439006,10.6563862 137.114914,11.1594646 136.883365,11.7082983 C136.651816,12.3028681 136.559273,12.8974187 136.559273,13.5834608 C136.559273,14.2237667 136.651816,14.8640535 136.929637,15.4586233 C137.161185,16.0531931 137.485468,16.5562715 137.902103,17.0136329 C138.318929,17.4709943 138.828298,17.7911472 139.383939,18.0655641 C139.986042,18.3399618 140.587954,18.4771702 141.2826,18.4771702 C141.699235,18.4771702 142.116061,18.431434 142.486616,18.3399618 C142.856979,18.2484895 143.227533,18.1113002 143.551625,17.9740918 C143.875717,17.8368834 144.153537,17.6082027 144.431358,17.4252581 C144.709178,17.1965774 144.940727,16.9678967 145.172275,16.7392161 L147.16348,18.4771702 C146.88566,18.751587 146.607839,19.07174 146.237476,19.3460803 C145.866922,19.6206501 145.496558,19.8950287 145.033461,20.1237094 C144.570363,20.3523901 144.014723,20.5353728 143.41262,20.6724665 C142.810707,20.8097514 142.116061,20.9011472 141.328872,20.9011472 C140.587954,20.9011472 139.893308,20.8097514 139.245124,20.6267686 C138.59675,20.4437859 137.994837,20.2151052 137.439006,19.8950287 C136.883365,19.574761 136.373996,19.2089866 135.957361,18.751587 C135.494264,18.2942256 135.169981,17.8368834 134.845889,17.2880497 C134.521797,16.7392161 134.290249,16.1904015 134.151243,15.5500956 C133.966157,14.9555258 133.919694,14.2695029 133.919694,13.6291969 C133.919694,12.9431549 134.012428,12.3486042 134.151243,11.7082983 C134.290249,11.1137285 134.521797,10.5191778 134.845889,9.97034417 C135.123709,9.42151052 135.494264,8.96416826 135.957361,8.50680688 C136.373996,8.04944551 136.883365,7.68355641 137.392734,7.36340344 C137.948375,7.0432696 138.504207,6.81458891 139.15239,6.63164436 C139.800765,6.44869981 140.448948,6.35722753 141.143595,6.35722753 C141.791969,6.35722753 142.440153,6.40296367 142.949522,6.44869981 C143.505354,6.54017208 144.014723,6.6773805 144.47782,6.86032505 C144.940727,7.0432696 145.403824,7.3176673 145.866922,7.63782027 C146.283748,7.95797323 146.746845,8.36959847 147.16348,8.87269598 L145.26501,10.7021224 Z" id="Path"></path>
                            <path d="M162.259847,13.6292734 C162.259847,14.2695602 162.167113,14.9098662 162.028298,15.5044359 C161.889293,16.0989866 161.657744,16.6935564 161.333652,17.2423901 C161.055832,17.7912046 160.685277,18.2943021 160.268642,18.7059273 C159.851816,19.1632887 159.388719,19.5292543 158.833078,19.8493308 C158.323709,20.1694073 157.721606,20.398088 157.119694,20.5810707 C156.517782,20.7640535 155.823136,20.8554493 155.174761,20.8554493 C154.480115,20.8554493 153.831931,20.7640535 153.183556,20.5810707 C152.535373,20.398088 151.979541,20.1694073 151.423901,19.8493308 C150.86826,19.5292543 150.405163,19.1632887 149.942065,18.7059273 C149.52543,18.248566 149.154876,17.7912046 148.830784,17.2423901 C148.506501,16.6935564 148.275143,16.1447228 148.136138,15.5044359 C147.95086,14.9098662 147.904589,14.2695602 147.904589,13.6292734 C147.904589,12.9889675 147.997132,12.3486616 148.136138,11.7541109 C148.321415,11.1595411 148.552964,10.5649713 148.830784,10.0618738 C149.108604,9.51305927 149.52543,9.0556979 149.942065,8.59833652 C150.358891,8.14099426 150.86826,7.77510516 151.377629,7.4549522 C151.93327,7.13479924 152.48891,6.90611855 153.091013,6.723174 C153.692925,6.54022945 154.3413,6.44877629 155.035946,6.44877629 C155.730402,6.44877629 156.378776,6.54022945 156.980688,6.723174 C157.582792,6.90611855 158.184704,7.13479924 158.694073,7.4549522 C159.203442,7.77510516 159.712811,8.14099426 160.129637,8.59833652 C160.546463,9.0556979 160.916826,9.51305927 161.241109,10.0618738 C161.565201,10.6107075 161.79675,11.1595411 161.935564,11.7541109 C162.167113,12.3943977 162.259847,12.9889675 162.259847,13.6292734 Z M159.573996,13.6749904 C159.573996,12.9889675 159.43499,12.3943977 159.203442,11.799847 C158.971893,11.2052772 158.647801,10.7021797 158.277438,10.2448184 C157.860612,9.7874761 157.397514,9.46732314 156.841874,9.19290631 C156.286233,8.91848948 155.68413,8.82701721 155.082218,8.82701721 C154.433843,8.82701721 153.831931,8.96422562 153.276291,9.23864245 C152.720459,9.51305927 152.257361,9.83321224 151.840727,10.2905545 C151.423901,10.7479159 151.099809,11.2510134 150.86826,11.8455832 C150.636711,12.4401338 150.497706,13.0347036 150.497706,13.6749904 C150.497706,14.3152964 150.636711,14.9556023 150.821989,15.550153 C151.053537,16.1447228 151.377629,16.6478203 151.794455,17.1051816 C152.21109,17.5625239 152.674187,17.8826769 153.229828,18.1570937 C153.78566,18.3857744 154.433843,18.5229828 155.082218,18.5229828 C155.730402,18.5229828 156.378776,18.3857744 156.888145,18.1570937 C157.443786,17.928413 157.906883,17.5625239 158.277438,17.1509178 C158.647801,16.7392925 158.971893,16.1904589 159.15717,15.5958891 C159.43499,15.0013384 159.573996,14.3610325 159.573996,13.6749904 Z" id="Shape"></path>
                            <polygon id="Path" points="166.93652 9.14713193 166.93652 13.3090822 171.428298 13.3090822 171.428298 15.7788145 166.93652 15.7788145 166.93652 20.6267686 164.343403 20.6267686 164.343403 6.67741874 171.613576 6.67741874 171.613576 9.14713193"></polygon>
                            <polygon id="Path" points="176.059082 9.14713193 176.059082 13.3090822 180.55086 13.3090822 180.55086 15.7788145 176.059082 15.7788145 176.059082 20.6267686 173.465966 20.6267686 173.465966 6.67741874 180.736138 6.67741874 180.736138 9.14713193"></polygon>
                            <polygon id="Path" points="182.588528 20.6267686 182.588528 6.67741874 190.090249 6.67741874 190.090249 9.14713193 185.227916 9.14713193 185.227916 13.3090822 189.8587 13.3090822 189.8587 15.7788145 185.227916 15.7788145 185.227916 18.1570554 190.090249 18.1570554 190.090249 20.6267686"></polygon>
                            <polygon id="Path" points="192.499044 20.6267686 192.499044 6.67741874 200 6.67741874 200 9.14713193 195.137667 9.14713193 195.137667 13.3090822 199.814532 13.3090822 199.814532 15.7788145 195.137667 15.7788145 195.137667 18.1570554 200 18.1570554 200 20.6267686"></polygon>
                            <polygon id="Path" points="107.293308 5.1681262 105.765201 5.1681262 107.987954 0 110.673805 0"></polygon>
                            <path d="M11.669369,19.1175143 C11.669369,19.0717782 11.669369,19.0717782 11.669369,19.0260421 C11.669369,19.0260421 11.669369,19.0260421 11.669369,18.9803059 C11.669369,18.9345698 11.669369,18.8888337 11.669369,18.7973614 C11.6230593,18.6144168 11.4841491,18.4772084 11.2526004,18.4314723 C8.79833652,17.8826577 6.71451243,16.5105927 5.37160612,14.6354302 C4.35286807,13.2633461 3.75086042,11.5711281 3.75086042,9.69596558 C3.75086042,8.87273423 3.88978967,8.04948375 4.12131931,7.27198853 C4.12131931,7.31772467 4.16762906,7.31772467 4.21393881,7.31772467 C5.00116635,7.63785851 5.88099426,7.3634608 6.39036329,6.76889101 C6.48298279,6.6316826 6.57560229,6.49447419 6.62191205,6.31152964 C6.99235182,5.396826 6.52929254,4.34489484 5.55684512,3.97900574 C5.51053537,3.97900574 5.51053537,3.97900574 5.51053537,3.97900574 C4.21393881,3.52166348 3.38042065,4.48210325 3.05627151,4.93946463 C3.00996176,4.98520076 3.00996176,5.0309369 2.96365201,5.07667304 C2.96365201,5.12240918 2.91734226,5.12240918 2.91734226,5.16814532 C2.91734226,5.21388145 2.8710325,5.21388145 2.8710325,5.21388145 C2.82472275,5.30535373 2.778413,5.44256214 2.68581262,5.53403442 C2.45426386,6.03711281 2.26904398,6.6316826 2.13011472,7.45491396 C2.03751434,8.00374761 1.99120459,8.64405354 2.03751434,9.37581262 C2.03751434,9.51302103 2.08382409,9.69596558 2.08382409,9.833174 C2.59319312,14.3152772 6.06621415,17.9283939 10.5117017,18.7058891 C10.5117017,18.7058891 10.5579924,18.7058891 10.5579924,18.7516252 C10.5579924,18.7973614 10.5579924,18.7973614 10.5117017,18.7973614 C5.46422562,18.3400191 1.38921033,14.4982218 0.555684512,9.60449331 C0.185228107,10.7936329 0,12.0742256 0,13.4005545 C0,13.7664436 0,14.1780688 0.0463070746,14.5439579 C2.778413,17.1508795 6.43667304,18.7516252 10.5117017,18.9345698 C10.5579924,18.9345698 10.5579924,18.9803059 10.5579924,18.9803059 C10.5579924,19.0260421 10.5117017,19.0260421 10.5117017,19.0717782 C10.280153,19.0717782 10.0486233,19.0717782 9.77078394,19.0717782 C6.48298279,19.0717782 3.3341109,18.3400191 0.509376673,17.0136711 C1.20398279,19.4376673 2.59319312,21.5871893 4.3991587,23.1879541 C5.51053537,21.175717 7.77957935,19.666348 10.5579924,19.2089866 C10.5579924,19.2089866 10.6043021,19.2089866 10.6043021,19.2546845 C10.6043021,19.2546845 10.6043021,19.3003824 10.5579924,19.3003824 C8.75202677,19.7120459 7.27021033,20.6724665 6.39036329,21.907457 C6.34405354,21.9531549 6.15883365,22.1818356 6.0199044,22.501912 C5.83468451,22.8678776 5.74206501,23.325239 5.83468451,23.8739962 C5.83468451,23.9655832 5.88099426,24.056979 5.92730402,24.1483748 C5.92730402,24.1942639 5.97361377,24.2856597 5.97361377,24.3313576 C6.2051434,24.743021 6.66820268,25.0630975 7.22390057,25.0630975 C8.01110899,25.0630975 8.61309751,24.4229446 8.61309751,23.6910134 C8.61309751,23.6453155 8.61309751,23.6453155 8.61309751,23.5996176 C8.56680688,23.0508604 8.19634799,22.593499 7.7332696,22.4105163 C8.47418738,21.08413 9.77078394,20.0323136 11.2989101,19.5290631 C11.4841491,19.4376673 11.6230593,19.3003824 11.669369,19.1175143 Z" id="Path"></path>
                            <path d="M26.8118547,12.8974379 C26.7655832,11.571109 26.5340344,10.3362524 26.1172084,9.14711281 C25.0059273,5.89988528 22.6441683,3.2014914 19.6342256,1.64647228 C19.1248566,1.37205736 18.5691969,1.1433805 18.013499,0.914701721 C16.5779924,0.411608031 15.049847,0.137194837 13.4291013,0.137194837 C12.9660421,0.137194837 12.5492734,0.137194837 12.1325048,0.182930593 L9.90977055,11.5253728 L15.4203059,11.5253728 C14.0773996,12.8059847 13.1049522,14.4067304 12.5955832,16.1904207 C12.5492734,16.1904207 12.5492734,16.1904207 12.5029637,16.1904207 C11.8546654,16.1904207 11.3452964,16.693499 11.3452964,17.333805 C11.3452964,17.6996941 11.5305163,17.9741109 11.762065,18.2027916 C11.762065,18.2027916 11.762065,18.2027916 11.8083556,18.2485277 C12.0399044,18.4314723 12.1788145,18.7516061 12.1788145,19.0260229 C12.1788145,19.3460803 12.0399044,19.6206501 11.8083556,19.8493308 C11.5305163,20.0321224 11.3452964,20.3523901 11.3452964,20.7181644 C11.3452964,21.3585086 11.8546654,21.81587 12.5029637,21.81587 C12.5492734,21.81587 12.5492734,21.81587 12.5955832,21.81587 C13.1049522,23.5996176 14.0773996,25.2003824 15.4203059,26.4808795 C21.856979,25.5204589 26.8118547,20.0321224 26.8118547,13.3547992 C26.8118547,13.2175908 26.8118547,13.0803824 26.8118547,12.8974379 Z M16.7169025,6.95181644 C15.4203059,6.95181644 14.2626386,6.44871893 13.3828107,5.67120459 C14.2626386,4.89370937 15.4203059,4.39061185 16.7169025,4.39061185 C18.013499,4.39061185 19.1711281,4.89370937 20.0510516,5.67120459 C19.1711281,6.44871893 18.013499,6.95181644 16.7169025,6.95181644 Z" id="Shape"></path>
                            <path d="M15.7445124,5.67122371 C15.7445124,6.22005736 16.161262,6.6316826 16.7169407,6.6316826 C17.2726386,6.6316826 17.6893881,6.17432122 17.6893881,5.67122371 C17.6893881,5.12239006 17.2263289,4.71078394 16.7169407,4.71078394 C16.161262,4.6650478 15.7445124,5.12239006 15.7445124,5.67122371 Z" id="Path"></path>
                        </g>
                    </g>
                </g>
            </g>
        </g>
    </g>
</svg>