<?xml version="1.0" encoding="UTF-8"?>
<svg width="90px" height="21px" viewBox="0 0 90 21" version="1.1" xmlns="http://www.w3.org/2000/svg" xmlns:xlink="http://www.w3.org/1999/xlink">
    <title>75010A34-9689-4C98-9DB2-27761872FC6D</title>
    <g id="desktop" stroke="none" stroke-width="1" fill="none" fill-rule="evenodd" opacity="1">
        <g id="landing" transform="translate(-936, -2712)" fill="#FFFFFF" fill-rule="nonzero">
            <g id="Group-11" transform="translate(100, 2657)">
                <g id="Group-8-Copy-3" transform="translate(836, 0)">
                    <g id="Group" transform="translate(0, 55)">
                        <path d="M85.8275684,19.8027878 L85.8275684,15.1471347 C85.8275684,13.5487868 86.1249355,12.5358802 87.0820857,11.6809499 C88.2994321,10.5751162 90,10.5937016 90,10.5937016 L90,7.14610222 C86.3665462,7.14610222 85.6602994,9.16262261 85.6602994,9.16262261 L84.6195147,7.46205472 L82.4450181,7.46205472 L82.4450181,19.8027878 L85.8275684,19.8027878 L85.8275684,19.8027878 Z M18,20.128033 L18,20.128033 C21.2338668,20.128033 22.0795044,18.1115126 22.0795044,18.1115126 L23.1202891,19.8120805 L25.2947858,19.8120805 L25.2947858,7.47134744 L21.9122354,7.47134744 L21.9122354,13.5952504 C21.9122354,15.1935983 21.4197212,16.2343831 20.6391327,16.7268973 C20.2581311,16.9778007 19.6448116,17.0893134 19.0686629,17.0893134 C17.1171915,17.0893134 16.6246773,15.9834796 16.6246773,14.1528136 L16.6246773,7.47134744 L13.2235416,7.47134744 L13.2235416,15.1471347 C13.2328343,18.5947341 14.9519876,20.128033 18,20.128033 M61.68508,7.14610222 C61.7036655,7.14610222 61.7036655,7.14610222 61.68508,7.14610222 C58.4512132,7.14610222 57.6055756,9.16262261 57.6055756,9.16262261 L56.5833764,7.46205472 L54.4088797,7.46205472 L54.4088797,19.8027878 L57.79143,19.8027878 L57.79143,13.6974703 C57.79143,12.0991224 58.2839442,11.0583376 59.0645328,10.5658234 C59.4455343,10.31492 60.0588539,10.2034073 60.6350026,10.2034073 C62.5864739,10.2034073 63.0789881,11.3092411 63.0789881,13.1399071 L63.0789881,19.8027878 L66.4615385,19.8027878 L66.4615385,12.1270005 C66.4522457,8.67940114 64.7423851,7.14610222 61.68508,7.14610222 M42.9416624,7.14610222 C39.8193082,7.14610222 38.9179143,8.99535364 38.8993289,9.01393908 L38.8342798,9.16262261 L38.7506453,9.03252452 C37.9050077,7.75942179 36.7062468,7.15539494 34.7083118,7.15539494 C31.5859577,7.15539494 30.6845638,9.00464636 30.6659783,9.0232318 L30.6009293,9.17191533 L29.5601446,7.47134744 L27.3856479,7.47134744 L27.3856479,9.17191533 L27.3856479,11.7274135 L27.3856479,19.8120805 L30.7681982,19.8120805 L30.7681982,13.706763 C30.7681982,11.3185338 31.5952504,10.2127001 33.3422819,10.2127001 C34.8941662,10.2127001 35.6189985,11.1326794 35.6189985,13.1120289 L35.6189985,19.8120805 L39.0015488,19.8120805 L39.0015488,13.6231285 C39.0015488,11.2999484 39.8100155,10.2034073 41.5291688,10.2034073 C42.5327827,10.2034073 43.852349,10.5007744 43.852349,13.1399071 L43.852349,19.8027878 L47.2350902,19.8027878 L47.2350902,12.1270005 C47.2534848,8.67940114 45.915333,7.14610222 42.9416624,7.14610222 M3.51264843,16.2808467 L3.51264843,2.50903459 L0,2.50903459 L0,19.8027878 L12.0619515,19.8027878 L12.0619515,16.2901394 L3.51264843,16.2901394 L3.51264843,16.2808467 Z M48.210635,2.50903459 L50.7196696,5.01806918 L53.2287042,2.50903459 L50.7196696,0 L48.210635,2.50903459 Z M48.9633454,7.452762 L52.4759938,7.452762 L52.4759938,19.7934951 L48.9633454,19.7934951 L48.9633454,7.452762 Z M74.3603511,7.14610222 C72.3624161,7.14610222 70.6618482,7.80588539 69.4259164,9.06040268 C68.273619,10.2312855 67.641714,11.8668043 67.641714,13.6324213 C67.641714,15.3980382 68.2643263,17.033557 69.4259164,18.2044399 C70.6432628,19.4589572 72.3624161,20.1373258 74.3603511,20.1373258 C78.3190501,20.1373258 81.0882808,17.4610222 81.0882808,13.6324213 C81.0882808,9.80382034 78.3190501,7.14610222 74.3603511,7.14610222 M74.3417656,17.2565823 C72.4088797,17.2565823 71.0242643,15.7418689 71.0242643,13.641714 C71.0242643,11.57873 72.4460506,10.0268456 74.3417656,10.0268456 C76.2746515,10.0268456 77.7057305,11.57873 77.7057305,13.641714 C77.7057305,15.7232834 76.293237,17.2565823 74.3417656,17.2565823" id="Shape"></path>
                    </g>
                </g>
            </g>
        </g>
    </g>
</svg>