<?xml version="1.0" encoding="UTF-8"?>
<svg width="77px" height="40px" viewBox="0 0 77 40" version="1.1" xmlns="http://www.w3.org/2000/svg" xmlns:xlink="http://www.w3.org/1999/xlink">
    <title>CD3D9E7C-0313-4CEC-8DC5-7D6FABDCBBE7</title>
    <defs>
        <linearGradient x1="0%" y1="36.4437199%" x2="100%" y2="63.5562801%" id="linearGradient-1">
            <stop stop-color="#434E59" offset="0%"></stop>
            <stop stop-color="#25323B" offset="100%"></stop>
        </linearGradient>
        <path d="M33.3656566,4.65872329 L33.3656566,0.133855562 L33.4317873,0.0677798392 L35.350457,0.0677798392 C35.6508211,0.0677798392 35.9147392,0.0908128908 36.1419913,0.136878994 C36.3718271,0.183549784 36.5634577,0.253693397 36.7169381,0.347254862 C36.8755858,0.444059644 36.994764,0.581983096 37.073648,0.760420532 C37.150773,0.935009964 37.1895829,1.14818938 37.1895829,1.39973889 C37.1895829,1.77964681 37.0842575,2.0815502 36.8736618,2.30473442 C36.6943448,2.49488078 36.4402666,2.62560297 36.1119219,2.69701093 C36.2262077,2.77842369 36.3434618,2.88545317 36.4639043,3.01804439 C36.6340411,3.20654161 36.8113791,3.44742665 36.9951488,3.7405346 L36.9953687,3.7405346 L37.5477221,4.62398131 L37.4917062,4.72479901 L36.3869443,4.72479901 L36.3319728,4.69516938 L35.3602419,3.230839 C35.313791,3.16195973 35.2649763,3.10182093 35.213578,3.05130214 C35.1638837,3.00204769 35.1118807,2.96136879 35.057294,2.92981516 C35.0040267,2.8987013 34.9343228,2.87544836 34.8481825,2.85967155 C34.7592936,2.84345496 34.6520443,2.83515426 34.5269292,2.83515426 L34.4085756,2.83515426 L34.4085756,4.65872329 L34.3424998,4.72479901 L33.4317873,4.72479901 L33.3656566,4.65872329 Z M34.4085756,1.98622964 L35.012987,1.98622964 C35.2391397,1.98622964 35.427417,1.97688449 35.5770494,1.95786436 L35.5772693,1.95786436 C35.7237133,1.93955885 35.8335463,1.91245791 35.9059988,1.87689136 L35.9062186,1.87667148 C35.9727341,1.84445819 36.0225933,1.79564351 36.0556861,1.73061224 C36.090648,1.66178795 36.107909,1.57306397 36.107909,1.46455026 C36.107909,1.36098399 36.0931767,1.27588813 36.0642067,1.20898784 C36.0371058,1.14670515 35.9968117,1.10003436 35.9439291,1.0693053 C35.8865938,1.03604755 35.7851165,1.01048581 35.639497,0.993004879 C35.4879406,0.974479489 35.2915825,0.965299251 35.0500378,0.965299251 L34.4085756,0.965299251 L34.4085756,1.98622964 Z M28.6751598,4.65872329 L28.6751598,0.133855562 L28.7414554,0.0677798392 L32.1034014,0.0677798392 L32.169697,0.133855562 L32.169697,0.899223528 L32.1034014,0.965299251 L29.7182986,0.965299251 L29.7182986,1.83104515 L31.9292517,1.83104515 L31.9953274,1.89734075 L31.9953274,2.66265375 L31.9292517,2.72856456 L29.7182986,2.72856456 L29.7182986,3.82733457 L32.190806,3.82733457 L32.2568817,3.89319041 L32.2568817,4.65872329 L32.190806,4.72479901 L28.7414554,4.72479901 L28.6751598,4.65872329 Z M24.3773243,4.65872329 L24.3773243,0.133855562 L24.443455,0.0677798392 L27.5440115,0.0677798392 L27.6098674,0.133855562 L27.6098674,0.899223528 L27.5440115,0.965299251 L25.4202432,0.965299251 L25.4202432,1.89904487 L27.2436474,1.89904487 L27.3097231,1.96490071 L27.3097231,2.73048856 L27.2436474,2.79656428 L25.4202432,2.79656428 L25.4202432,4.65872329 L25.3541675,4.72479901 L24.443455,4.72479901 L24.3773243,4.65872329 Z M19.5139421,3.12210541 L20.4052498,3.03321652 L20.4764928,3.08714354 C20.526352,3.35914244 20.6280492,3.56231705 20.7821892,3.69578781 C20.9354497,3.82859891 21.1432969,3.89511441 21.4066103,3.89511441 C21.6911977,3.89511441 21.9024531,3.84756408 22.0399918,3.75290318 C22.1702192,3.66313475 22.2352505,3.5271353 22.2352505,3.34424517 C22.2352505,3.27794956 22.2216175,3.22017453 22.1939119,3.17196454 C22.1663712,3.12358964 22.124373,3.082416 22.0674775,3.04877345 L22.0670377,3.04855356 C22.0056346,3.01188758 21.8962963,2.96774548 21.7391878,2.91656703 C21.5780114,2.86390435 21.3707689,2.80508486 21.1179551,2.73944891 L21.1179551,2.73961383 C20.6244211,2.61664262 20.2524291,2.43820518 20.0029685,2.20518106 C19.7471861,1.96660482 19.6190476,1.67245242 19.6190476,1.32409812 C19.6190476,1.11300763 19.6593417,0.925444925 19.7399299,0.760860304 C19.820683,0.596055796 19.9415653,0.455548684 20.1023019,0.340218512 L20.1025218,0.339998626 C20.2611695,0.226592455 20.4444994,0.14155157 20.6530063,0.0846011132 C20.8593692,0.0281453996 21.0898097,0 21.3437229,0 C21.923782,0 22.3650931,0.118518519 22.6676012,0.355995327 C22.9735175,0.596055796 23.1351336,0.954854669 23.151735,1.43129252 L23.0886278,1.49951213 L22.1779152,1.53683777 L22.1103003,1.4816464 C22.0768776,1.2823198 21.9966742,1.13373188 21.869855,1.03604755 C21.7414966,0.937153851 21.5622346,0.887679516 21.3323988,0.887679516 C21.0855219,0.887679516 20.9024119,0.921596922 20.7836735,0.988717103 C20.6768639,1.04929568 20.6233766,1.14010857 20.6233766,1.26099086 C20.6233766,1.29914107 20.632282,1.33646671 20.6502027,1.37269292 C20.6693878,1.4112829 20.6986326,1.44943311 20.738267,1.4878032 C20.7776816,1.52512884 20.8649213,1.56861128 20.9994365,1.61786573 C21.1396688,1.66942898 21.3277262,1.72506013 21.5630592,1.78475916 L21.5634989,1.78519893 C21.9495637,1.8845324 22.261252,1.98963788 22.498344,2.09963581 C22.7428571,2.21326187 22.9118945,2.33436405 23.005291,2.46250258 C23.0963238,2.58739779 23.1645434,2.72323232 23.2101697,2.87011613 C23.2553563,3.01612039 23.2781694,3.1726242 23.2781694,3.33935271 C23.2781694,3.8268948 23.1182574,4.19355459 22.7982684,4.43938707 C22.4833917,4.68153645 22.0156944,4.80219886 21.3952862,4.80219886 C20.8158868,4.80219886 20.3639112,4.66812341 20.0392496,4.39969766 C19.7130489,4.13044733 19.5181749,3.72882567 19.4549028,3.19543737 L19.5139421,3.12210541 Z M14.6897547,4.65872329 L14.6897547,0.133855562 L14.7556105,0.0677798392 L15.6343847,0.0677798392 L15.6902357,0.0991135848 L17.4317323,2.92277881 L17.4317323,0.133855562 L17.497863,0.0677798392 L18.3407957,0.0677798392 L18.4066515,0.133855562 L18.4066515,4.65872329 L18.3407957,4.72479901 L17.4300282,4.72479901 L17.3739573,4.69346526 L15.664674,1.93977874 L15.664674,4.65872329 L15.5987631,4.72479901 L14.7556105,4.72479901 L14.6897547,4.65872329 Z M13.8086718,4.72479901 L12.815447,4.72479901 L12.753824,4.68197622 L12.3824366,3.69771181 L10.6571566,3.69771181 L10.2966536,4.68153645 L10.2348107,4.72479901 L9.26439909,4.72479901 L9.20299595,4.63508555 L10.9662613,0.109997939 L11.0276644,0.0677798392 L12.0097849,0.0677798392 L12.0707483,0.109558167 L13.8696351,4.63442589 L13.8086718,4.72479901 Z M12.0451866,2.79997251 L11.50839,1.37758538 L10.9864908,2.79997251 L12.0451866,2.79997251 Z M4.65613963,4.65872329 L4.65613963,0.133855562 L4.72249021,0.0677798392 L6.64094001,0.0677798392 C6.94152408,0.0677798392 7.20544218,0.0908128908 7.43269429,0.136878994 C7.66253006,0.183549784 7.85416065,0.253693397 8.00742115,0.347254862 C8.16628874,0.444059644 8.28524703,0.581983096 8.36413111,0.760420532 C8.4412561,0.935009964 8.48006597,1.14818938 8.48006597,1.39973889 C8.48006597,1.77964681 8.3747406,2.0815502 8.16414485,2.30473442 C7.98482787,2.49488078 7.73074967,2.62560297 7.40262489,2.69701093 C7.5169106,2.77842369 7.63416478,2.88545317 7.75438741,3.01804439 C7.92474404,3.20654161 8.10208204,3.44742665 8.28563183,3.7405346 L8.2860716,3.7405346 L8.83842507,4.62398131 L8.78235415,4.72479901 L7.67764722,4.72479901 L7.62284065,4.69516938 L6.65094482,3.230839 L6.65072494,3.230839 C6.60427403,3.16195973 6.55545936,3.10182093 6.5042809,3.05130214 C6.45458668,3.00204769 6.40236377,2.96136879 6.34799698,2.92981516 C6.29472961,2.8987013 6.22480588,2.87544836 6.13888545,2.85967155 C6.04977668,2.84345496 5.94252731,2.83515426 5.81741222,2.83515426 L5.6992785,2.83515426 L5.6992785,4.65872329 L5.63298289,4.72479901 L4.72249021,4.72479901 L4.65613963,4.65872329 Z M5.6992785,1.98622964 L6.30347007,1.98622964 C6.52984264,1.98622964 6.71811998,1.97688449 6.86775235,1.95786436 L6.86797224,1.95786436 C7.01419639,1.93955885 7.12419432,1.91245791 7.19648183,1.87689136 L7.19670171,1.87667148 C7.26321721,1.84445819 7.31307634,1.79564351 7.34616917,1.73061224 C7.38113104,1.66178795 7.39861197,1.57306397 7.39861197,1.46455026 C7.39861197,1.36098399 7.38365973,1.27588813 7.35468975,1.20898784 C7.32758881,1.14670515 7.28729472,1.10003436 7.23441215,1.0693053 C7.17729678,1.03604755 7.07559953,1.01048581 6.92998007,0.993004879 C6.77864358,0.974479489 6.58206555,0.965299251 6.34052085,0.965299251 L5.6992785,0.965299251 L5.6992785,1.98622964 Z M1.3466914,4.65872329 L1.3466914,0.965299251 L0.0658558373,0.965299251 L0,0.899223528 L0,0.133855562 L0.0658558373,0.0677798392 L3.66082595,0.0677798392 L3.72668178,0.133855562 L3.72668178,0.899223528 L3.66082595,0.965299251 L2.38955542,0.965299251 L2.38955542,4.65872329 L2.32347969,4.72479901 L1.41276713,4.72479901 L1.3466914,4.65872329 Z" id="path-2"></path>
        <path d="M72.785388,32.9455095 L72.785388,2.66523741 L76.5835327,2.66523741 L76.5835327,32.9455095 L72.785388,32.9455095 Z M67.1339897,24.2907991 L67.1339897,23.3806913 C66.9031095,20.6459699 64.6105237,18.498344 61.8161033,18.498344 C58.8683675,18.498344 56.4785372,20.8878994 56.4785372,23.8356353 C56.4785372,26.783591 58.8683675,29.1732014 61.8161033,29.1732014 C64.6105237,29.1732014 66.9031095,27.0255205 67.1339897,24.2907991 Z M61.8161033,14.845379 C63.8059611,14.845379 65.6447023,15.4923933 67.1339897,16.5867106 L67.1339897,14.7773792 L70.9321344,14.7773792 L70.9321344,32.9455095 L67.1339897,32.9455095 L67.1339897,31.0846149 C65.6447023,32.1790971 63.8059611,32.8261115 61.8161033,32.8261115 C56.8507491,32.8261115 52.8256272,28.8009345 52.8256272,23.8356353 C52.8256272,18.8705559 56.8507491,14.845379 61.8161033,14.845379 Z M42.3451489,18.4113241 C39.397413,18.4113241 37.0075828,20.8009345 37.0075828,23.7486154 C37.0075828,26.6963513 39.397413,29.0861815 42.3451489,29.0861815 C45.2930497,29.0861815 47.6826601,26.6963513 47.6826601,23.7486154 C47.6826601,20.8009345 45.2930497,18.4113241 42.3451489,18.4113241 Z M42.3451489,14.7581942 C47.3104482,14.7581942 51.3355701,18.783536 51.3355701,23.7486154 C51.3355701,28.7139696 47.3104482,32.7390916 42.3451489,32.7390916 C40.4181235,32.7390916 38.6327047,32.1323713 37.1691989,31.1003367 L37.1691989,40 L33.3600049,40 L33.3600049,24.0383701 C33.3567616,23.9420051 33.3546727,23.8456401 33.3546727,23.7486154 C33.3546727,18.783536 37.3797947,14.7581942 42.3451489,14.7581942 Z M14.4243078,0.123191095 C15.0941354,0.0404590119 15.7622588,0 16.42505,0 C17.4018382,0 18.3675773,0.0877894592 19.3124271,0.257926201 L19.3228717,0.260070089 C19.4301211,0.279255136 19.5367108,0.299704528 19.6430806,0.32125335 C19.686563,0.329993816 19.7300455,0.338514396 19.7735279,0.347694633 C19.8372949,0.360887789 19.900622,0.374960489 19.964334,0.389253075 C20.0472859,0.407393665 20.129963,0.42613894 20.2124752,0.445543874 L20.2747579,0.460880918 C22.476091,0.991905449 24.5045387,1.96578025 26.2597232,3.28410637 C26.2799527,3.29922353 26.2997974,3.31500034 26.3200269,3.33033739 C26.3980864,3.38921185 26.4756512,3.44847111 26.5526113,3.50877482 C28.2749778,4.85997389 29.7361198,6.56205593 30.817189,8.54405277 L30.8572632,8.61716485 C30.8950287,8.68752834 30.9322993,8.75827664 30.9691852,8.82951969 C31.0011786,8.89070295 31.0329521,8.95188621 31.0642859,9.01367416 C31.0822066,9.04973545 31.1002922,9.08618154 31.1184328,9.12240775 C31.8861095,10.6678211 32.4167493,12.3511029 32.6646707,14.1254724 C32.6714871,14.1738473 32.6787434,14.2224421 32.6849002,14.2710369 C32.6915517,14.3202913 32.6972687,14.3695458 32.7032606,14.4190201 C32.908799,16.0797087 32.854817,17.7276438 32.5683056,19.3163197 L32.5674811,19.3199478 C32.5478562,19.4303855 32.5267472,19.5401635 32.5043738,19.6499416 C32.4964579,19.6894111 32.488597,19.7286058 32.4804612,19.7680753 C32.4660037,19.8373394 32.4506117,19.9064385 32.4352747,19.9754827 C32.4184534,20.0517831 32.4011923,20.1283584 32.3832716,20.2046588 L32.3628222,20.2879956 C31.8315228,22.4825672 30.8600668,24.505023 29.5459735,26.2555349 C29.4993027,26.3182024 29.4515325,26.3796056 29.4037622,26.4413935 C29.3762765,26.477015 29.3492305,26.5132413 29.321305,26.5486429 C27.968182,28.2752422 26.262087,29.7396276 24.2749778,30.8217412 L24.2141793,30.854999 C24.1404626,30.8946334 24.0660312,30.9336632 23.9916548,30.972473 C23.93344,31.0025424 23.8754451,31.0327767 23.8168455,31.0626263 C23.7775958,31.082471 23.7375216,31.1018759 23.6980521,31.1215007 C23.6013023,31.1694359 23.5036729,31.2169862 23.4058237,31.2630523 L23.393675,31.2689892 C21.936326,31.9543737 20.3623825,32.4321308 18.7088952,32.6638906 C18.6566723,32.6713667 18.6042295,32.6787879 18.5515668,32.6856043 C18.5066002,32.6913763 18.4611937,32.6967086 18.4157873,32.7024806 C16.6333369,32.9237408 14.8657838,32.8459562 13.1702984,32.503154 C13.1345119,32.4958978 13.0986705,32.4888614 13.0626642,32.4813853 C12.9905966,32.4660482 12.9187488,32.4504913 12.8469011,32.4342747 C12.7727446,32.4178382 12.698753,32.4012369 12.6252011,32.3839758 L12.5326841,32.3613825 C10.3409161,31.8296983 8.32098894,30.8590669 6.57179633,29.5462379 C6.49120813,29.4861541 6.41188428,29.424531 6.3326154,29.362908 C6.31535436,29.3497148 6.29765354,29.3364667 6.28017261,29.3230537 C4.55461774,27.9705903 3.09067216,26.2655398 2.00833862,24.2801347 L1.97018841,24.2108706 C1.9320382,24.1400673 1.89471257,24.0686594 1.85760682,23.9974713 C1.8258333,23.9362881 1.79389487,23.8752697 1.76294592,23.8137016 C1.74420064,23.7765959 1.72589514,23.7392703 1.70753467,23.7021645 C1.6585001,23.6037106 1.61051,23.504542 1.56339944,23.4049887 L1.55872686,23.3945441 C0.870978629,21.9342266 0.393056551,20.3556105 0.161736548,18.6976706 C0.15513997,18.6511647 0.148268535,18.604274 0.142111728,18.5578231 C0.135735036,18.5076891 0.129743145,18.4576101 0.123586338,18.4073112 C-0.0817321526,16.7463478 -0.0275852413,15.0984127 0.258926131,13.5100117 L0.259365903,13.5072081 C0.279210608,13.3974301 0.300319658,13.2878719 0.32225328,13.1784787 C0.330334088,13.1379647 0.338249982,13.0974507 0.346770562,13.0571566 C0.360623376,12.9906411 0.375575619,12.9241256 0.390253005,12.8576651 C0.407953823,12.7770769 0.426094412,12.6964887 0.445059574,12.6165052 L0.461660962,12.5485055 C0.992740465,10.3494812 1.96590064,8.32273758 3.28274253,6.5688724 C3.31600027,6.52429052 3.35035745,6.48102797 3.38405497,6.43688587 C3.42473387,6.38383838 3.46502797,6.33007627 3.50642149,6.27746856 C4.85800536,4.55361781 6.56113186,3.09093658 8.54439304,2.00948258 C8.56869044,1.99623445 8.59260304,1.98282141 8.61690043,1.96979317 C8.68742885,1.93186285 8.758452,1.89453721 8.82964007,1.85765134 C8.89082333,1.82571291 8.9520066,1.79393939 9.01362963,1.76282553 C9.04985584,1.74446506 9.08613702,1.72654436 9.12236322,1.70867862 C10.6690409,0.940342197 12.3540268,0.409097781 14.1298806,0.16156119 C14.1761116,0.155184498 14.2221777,0.148368034 14.2682438,0.142156256 C14.3200269,0.135559678 14.37203,0.129182986 14.4243078,0.123191095 Z M14.0944789,27.8994022 C14.844235,28.0499141 15.6196078,28.129183 16.4135059,28.129183 C16.8987392,28.129183 17.3771011,28.0993335 17.8467774,28.0417783 C17.8772316,28.0379853 17.9077408,28.0343572 17.93825,28.0305092 C17.9776645,28.0251769 18.0164744,28.0196248 18.0556691,28.0140727 C18.5187488,27.947997 18.9825982,27.8542156 19.445678,27.730145 C20.1267747,27.5474198 20.7782967,27.3086786 21.3952417,27.0195836 L21.4065658,27.0142514 C21.4760497,26.9814334 21.5453138,26.9477359 21.6141931,26.9133787 L21.6979696,26.8718202 C21.7401877,26.8507112 21.7819661,26.8289975 21.8235245,26.8072288 C21.8770667,26.7793032 21.930554,26.7513777 21.9838763,26.7226276 L22.0235108,26.7008589 C23.4230847,25.9365904 24.6491137,24.894551 25.6282658,23.6493369 C25.6508591,23.6205318 25.6727927,23.591342 25.6952211,23.562317 C25.7263349,23.5216382 25.7578885,23.4813441 25.7885626,23.4403903 C26.7368207,22.1732426 27.4252286,20.7207861 27.8014534,19.1728441 L27.8132173,19.1246891 C27.82729,19.0664743 27.8400434,19.0082595 27.8530717,18.9496599 C27.8635162,18.903154 27.8737409,18.856923 27.8835808,18.8101972 C27.8895178,18.7807875 27.8952898,18.7513777 27.9012267,18.721968 C27.9166187,18.6452278 27.9317359,18.5682677 27.9453688,18.4910877 L27.9472928,18.4823473 C28.0669107,17.8108156 28.1293583,17.1194393 28.1293583,16.4133856 C28.1293583,15.9332646 28.0999486,15.460235 28.0434379,14.9950663 C28.0389852,14.9568611 28.0344776,14.918491 28.0293652,14.8803408 C28.0252973,14.8487872 28.0206247,14.8178932 28.0161721,14.7865595 C27.9500963,14.3185872 27.8554354,13.8494056 27.7300455,13.3812135 C27.5245621,12.6141964 27.2469561,11.8857143 26.9076171,11.2005497 L26.8760635,11.1370027 C26.8515462,11.0879681 26.8259295,11.0393733 26.8005876,10.9905586 C26.7762902,10.9441077 26.7519929,10.8971621 26.7268159,10.8509311 C26.7157117,10.8302618 26.7040027,10.8097574 26.6928985,10.7890882 C25.9295095,9.39699031 24.8919228,8.17607366 23.652041,7.20098949 C22.3355839,6.1682952 20.8064421,5.42255205 19.1710954,5.02499828 L19.1254691,5.01389404 C19.0665947,4.99982134 19.0075553,4.9867931 18.9485159,4.97359995 C18.9026697,4.96359514 18.8568235,4.95315055 18.8108123,4.94353054 C18.7809628,4.93737374 18.7508934,4.93138185 18.7206041,4.92560984 C18.6447435,4.9102728 18.568608,4.89515564 18.4918678,4.88152271 L18.4814232,4.87959871 C17.8103313,4.76020065 17.1191749,4.69753315 16.4135059,4.69753315 C15.9327803,4.69753315 15.4588712,4.72716278 14.9934826,4.78367347 C14.9561569,4.78812616 14.9186664,4.79257885 14.8811209,4.79752628 C14.8489625,4.8015392 14.8169691,4.80648664 14.7847559,4.81093933 C14.3170585,4.87701505 13.8487014,4.97145606 13.381169,5.09701093 C12.6149764,5.30232942 11.8873739,5.57927575 11.2030339,5.91822992 L11.135254,5.95192744 C11.0877037,5.97578506 11.0403733,6.00030234 10.9932627,6.02503951 C10.9453276,6.04999656 10.8968977,6.07511853 10.8491824,6.10090016 L10.7924519,6.13228888 C9.39799024,6.89611764 8.17580925,7.93496873 7.19940576,9.17677455 C7.16977613,9.21448499 7.14102604,9.25285508 7.11156133,9.29106026 C7.08726393,9.32261389 7.06274665,9.35394764 7.03888903,9.38588607 C6.09255494,10.6502852 5.40480671,12.0995534 5.02792221,13.6440871 L5.0121454,13.7077991 C4.99977681,13.7611214 4.987848,13.8148286 4.9756993,13.8683708 C4.96437518,13.9194943 4.95305105,13.9706727 4.94222167,14.0222909 L4.92726943,14.0966674 C4.77719728,14.8455988 4.69765354,15.620312 4.69765354,16.4133856 C4.69765354,16.8992235 4.72772294,17.3780251 4.78527809,17.8483062 C4.78912609,17.8781557 4.79253432,17.9075655 4.79638233,17.937415 C4.80149467,17.9768845 4.80748657,18.0165189 4.8128188,18.0557686 C4.87911441,18.5187934 4.97289576,18.9829176 5.09674651,19.4459424 C5.27903195,20.1255549 5.51716842,20.7753728 5.80560379,21.3912733 L5.81434426,21.4095788 C5.84589789,21.4769738 5.87827609,21.5432694 5.91114904,21.609565 C5.9262662,21.6400192 5.94121844,21.6707483 5.95655549,21.7010376 C5.97656511,21.7408919 5.99745427,21.7805264 6.01795863,21.8199959 C6.0469286,21.8754071 6.07551378,21.9305985 6.10514341,21.9858448 L6.12410857,22.0199272 C6.88942156,23.4214251 7.93234055,24.649598 9.17947859,25.6297945 L9.20399588,25.6485948 C9.26517914,25.69631 9.32658228,25.7434206 9.38864509,25.7901464 C10.6521646,26.7351611 12.0997287,27.4218649 13.6425034,27.7987494 L13.708854,27.8147461 C13.7610769,27.8273346 13.8139595,27.8388236 13.8664023,27.8508074 C13.918845,27.8625163 13.9712878,27.8742252 14.0237306,27.8848897 C14.0473684,27.8900021 14.0710611,27.8945097 14.0944789,27.8994022 Z" id="path-4"></path>
        <linearGradient x1="0%" y1="41.4273527%" x2="100%" y2="41.4273527%" id="linearGradient-6">
            <stop stop-color="#2173B4" offset="0%"></stop>
            <stop stop-color="#00C4FF" offset="100%"></stop>
        </linearGradient>
        <linearGradient x1="0%" y1="41.4273527%" x2="100%" y2="41.4273527%" id="linearGradient-7">
            <stop stop-color="#FFFFFF" offset="0%"></stop>
            <stop stop-color="#FFFFFF" offset="100%"></stop>
        </linearGradient>
        <linearGradient x1="0%" y1="55.5139318%" x2="100%" y2="77.8132403%" id="linearGradient-8">
            <stop stop-color="#00C5FF" offset="0%"></stop>
            <stop stop-color="#61C7A2" offset="100%"></stop>
        </linearGradient>
        <linearGradient x1="0%" y1="55.5139318%" x2="100%" y2="77.8132403%" id="linearGradient-9">
            <stop stop-color="#FFFFFF" offset="0%"></stop>
            <stop stop-color="#FFFFFF" offset="100%"></stop>
        </linearGradient>
    </defs>
    <g id="desktop" stroke="none" stroke-width="1" fill="none" fill-rule="evenodd">
        <g id="landing" transform="translate(-443, -2002)">
            <g id="Group-10" transform="translate(100, 1701)">
                <g id="kaip-digitouch.lt" transform="translate(0, 265)">
                    <g id="Group-7" transform="translate(313, 0)">
                        <g id="logo" transform="translate(30, 36)">
                            <g id="Group-64" transform="translate(39.2724, 35.1813)">
                                <mask id="mask-3" fill="white">
                                    <use xlink:href="#path-2"></use>
                                </mask>
                                <g id="Clip-63"></g>
                                <polygon id="Fill-62" fill="#FFFFFF" mask="url(#mask-3)" points="-2.74857418 7.55077304 40.2963513 7.55077304 40.2963513 -2.74859617 -2.74857418 -2.74859617"></polygon>
                            </g>
                            <g id="Group-70">
                                <mask id="mask-5" fill="white">
                                    <use xlink:href="#path-4"></use>
                                </mask>
                                <g id="Clip-69"></g>
                                <polygon id="Fill-68" fill="url(#linearGradient-7)" mask="url(#mask-5)" points="0.00988698668 39.7730777 33.1760154 39.7730777 33.1760154 -0.0812478527 0.00988698668 -0.0812478527"></polygon>
                                <polygon id="Fill-68" fill="url(#linearGradient-9)" mask="url(#mask-5)" points="33.2676345 40.0937447 76.6951065 40.0937447 76.6951065 -0.0812478527 33.2676345 -0.0812478527"></polygon>
                            </g>
                        </g>
                    </g>
                </g>
            </g>
        </g>
    </g>
</svg>