<?xml version="1.0" encoding="UTF-8"?>
<svg width="130px" height="23px" viewBox="0 0 130 23" version="1.1" xmlns="http://www.w3.org/2000/svg" xmlns:xlink="http://www.w3.org/1999/xlink">
    <title>326E56BF-2EDA-438E-9E8C-B7685A1A7668</title>
    <g id="desktop" stroke="none" stroke-width="1" fill="none" fill-rule="evenodd" opacity="1">
        <g id="landing" transform="translate(-309, -3011)" fill="#FFFFFF" fill-rule="nonzero">
            <g id="Group-11" transform="translate(100, 2657)">
                <g id="Group-8" transform="translate(209, 300)">
                    <g id="Group" transform="translate(0, 54)">
                        <path d="M4.51278585,7.95126378 C5.5495192,7.95126378 6.55811004,8.21362449 7.4141867,8.86998019 C7.44142137,9.54993927 7.13185388,10.5748709 6.22312352,10.4913513 C5.70384903,10.26258 5.05566373,10.0737529 4.43471311,10.0737529 C3.65580137,10.0737529 3.11383132,10.4913513 3.11383132,11.1204723 C3.11383132,11.6733362 3.52598275,11.9856272 4.07067628,12.3006416 C4.56362392,12.5838822 5.6021729,13.060489 6.19498102,13.3736878 C7.49316726,14.104485 8.01153393,15.0994585 8.01153393,16.2551166 C8.01153393,18.8424108 5.72926806,20.1015607 3.36983727,20.1015607 C2.36033861,20.1015607 1.2727672,19.8092418 0.571928201,19.3662244 C0.236033861,19.1301906 0,18.8169918 0,18.4248124 C0.0290503213,17.8710407 0.313198777,17.296389 0.677235616,17.0113327 C1.42800486,17.4779535 2.54190312,17.9536525 3.57863646,17.9536525 C4.51369368,17.9536525 5.05566373,17.5097273 5.05566373,16.851556 C5.05566373,16.3849352 4.79511866,16.0435939 4.04525724,15.6468755 C3.39707195,15.2873777 2.72437545,14.9678242 2.07528233,14.6028795 C1.01222213,14.0046245 0.259637247,13.0069275 0.259637247,11.6170512 C0.259637247,9.28939421 2.25684684,7.95126378 4.48464335,7.95126378 L4.51278585,7.95126378 L4.51278585,7.95126378 Z M13.2460387,13.7649593 C14.410775,12.4849296 17.4692292,8.78827616 18.0919954,7.95126378 C18.534105,7.93038386 19.3357123,8.00754878 19.9058249,8.16460208 C20.5031721,8.34344312 20.580337,8.63576198 20.0102245,9.34114009 C18.9462564,10.6756392 17.6771205,12.0646077 16.431588,13.4190789 C17.132427,14.6028795 19.6743301,18.1370327 20.943466,19.5496046 L20.9162314,19.6285851 C20.4768452,19.8373843 19.4410197,19.992622 18.6103621,19.992622 C17.7806123,19.992622 17.316715,19.7584038 16.6930409,18.8696455 C15.7588915,17.6658728 14.1783725,15.731303 13.2460387,14.0536469 L13.2460387,19.1583331 C13.2460387,19.6794232 13.0626585,19.7892697 12.4408001,19.8382921 C11.7926148,19.9190883 11.3278097,19.971742 10.0323469,19.9417839 C10.0822771,18.8696455 10.1104196,17.327255 10.1104196,15.1557435 L10.1104196,5.33582704 C10.1104196,3.76257057 10.0568581,2.98093537 10.0032966,2.42897926 C10.5752248,2.19748451 12.2329087,2.03679992 12.7794179,2.03679992 C13.1425469,2.03679992 13.2460387,2.16661855 13.2460387,3.76257057 L13.2460387,13.7649593 L13.2460387,13.7649593 Z M22.0056184,9.31572106 C22.2116941,8.71383471 23.1966816,7.9521716 23.8938893,7.9521716 C25.03593,7.9521716 25.5025508,9.05245252 25.5279699,10.6756392 C26.2814626,8.89812269 27.3708496,7.9521716 28.7416617,7.9521716 C29.2337015,7.9521716 29.7293726,8.19002111 29.9608673,8.39700465 C30.090686,8.68660004 30.0616356,9.44553968 29.8065375,9.94211861 C29.7030457,10.4922591 29.1828634,11.1213801 28.7934075,11.1713103 C28.2768565,10.9679581 27.9918002,10.9098574 27.5524141,10.9098574 C27.1348158,10.9098574 26.3822309,11.229411 25.9691716,12.3269684 C25.8020831,12.732465 25.7222781,13.1686087 25.7349534,13.6069982 L25.7349534,19.0838916 C25.7349534,19.496043 25.6850232,19.7048422 25.1657487,19.8101496 C24.2570183,19.9190883 23.455411,19.9417839 22.5221694,19.9417839 C22.5748231,18.5546311 22.5984265,16.9604947 22.5984265,15.178439 L22.5984265,10.753712 C22.5984265,10.1536413 22.4459123,9.68702048 22.0056184,9.41921283 L22.0056184,9.31572106 Z" id="Shape"></path>
                        <path d="M35.9198145,9.78597314 C34.9611539,9.78597314 33.9244205,10.7046895 33.820021,12.6628628 C34.883989,12.7445668 36.8775673,12.7146087 37.503057,12.6628628 C37.6846215,12.6628628 37.8380435,12.4014099 37.8380435,12.1181692 C37.8652782,10.835416 37.2688388,9.78597314 35.947957,9.78597314 L35.9207223,9.78597314 L35.9198145,9.78597314 Z M40.275547,17.1938051 C40.275547,18.3458319 39.3677245,19.4179703 38.9256149,19.6285851 C38.5379747,19.8101496 37.4258921,20.1006529 36.5180695,20.1006529 C32.7315417,20.1006529 30.6617063,18.0072141 30.6617063,14.1580465 C30.6617063,10.988838 32.7088462,7.95126378 36.2066864,7.95126378 C39.4966353,7.95126378 40.7657712,10.3615326 40.7939137,12.4522479 C40.7939137,12.8244552 40.7657712,13.1076958 40.7149332,13.3201263 C40.6368604,13.7123056 39.6001271,14.0790659 38.5379747,14.3414266 C37.8888816,14.4966643 35.1971878,14.523899 33.7682751,14.4712453 C33.8999093,16.7725754 35.5585011,17.7412221 37.318769,17.7412221 C38.5652094,17.7412221 39.7835072,17.3517662 40.2238012,17.1438748 L40.275547,17.1947129 L40.275547,17.1938051 Z" id="Shape"></path>
                        <path d="M50.3796119,12.7146087 C50.3796119,11.1967294 49.5789124,10.334298 48.4368717,10.334298 C47.4237417,10.334298 46.7782799,10.8054578 46.209983,11.3038524 L46.209983,19.1292827 C46.209983,19.6049817 46.1319103,19.7375238 45.6135436,19.7892697 C44.7329557,19.9181805 43.9249937,19.9417839 42.9944756,19.9417839 C43.0462214,18.5546311 43.0734561,16.9604947 43.0734561,15.178439 L43.0734561,10.8844384 C43.0734561,10.0991719 42.9672409,9.70699257 42.5786928,9.47277436 L42.5786928,9.28939421 C42.8365144,8.63576198 43.7207336,7.95126378 44.5232487,7.95126378 C45.509144,7.95126378 45.8958764,8.89812269 46.0529297,9.70699257 C47.1150821,8.7655806 48.3606146,7.95126378 49.6560774,7.95126378 C52.9469341,7.95126378 53.5188623,10.7055974 53.5188623,12.7445668 L53.5188623,16.0435939 C53.5188623,17.4035121 53.5424657,18.8424108 53.6187228,19.7384317 C53.0268225,19.7892697 51.9882735,19.9417839 50.9007021,19.9417839 C50.5103384,19.9417839 50.3796119,19.7892697 50.3796119,19.445205 L50.3796119,12.7146087 L50.3796119,12.7146087 Z" id="Path"></path>
                        <path d="M64.0132909,10.1781525 C63.7536536,10.0465182 63.2098679,9.89037273 62.5589591,9.89037273 C61.0038591,9.89037273 59.2163565,11.0414917 59.2163565,13.9483395 C59.2163565,16.4058151 60.6688726,17.7194343 62.3773946,17.7194343 C62.8948535,17.7194343 63.5720891,17.5360542 64.0132909,17.2473666 L64.0132909,10.1781525 Z M64.0132909,5.23142745 C64.0132909,3.70991687 63.9633606,3.05537681 63.8852879,2.50977547 C64.4263501,2.29643717 66.1366878,2.03770775 66.6559623,2.03770775 C67.0426947,2.03770775 67.1507256,2.16661855 67.1507256,3.7634784 L67.1507256,16.851556 C67.1507256,17.8701329 67.4829886,18.1370327 68.2110623,18.2949938 L68.2110623,18.3739744 C68.0821515,19.1301906 67.3558935,20.1015607 66.6323589,20.1015607 C65.2034462,20.1015607 64.6342415,19.445205 64.3718808,18.6871732 C63.4132202,19.445205 62.0142656,20.1015607 61.0310938,20.1015607 C57.9989665,20.1015607 55.9254998,17.8492529 55.9254998,14.3922647 C55.9254998,10.5458206 58.7760626,7.95126378 62.4563752,7.95126378 C63.1553986,7.95126378 63.7781648,8.0810824 64.0132909,8.21453232 L64.0132909,5.23051962 L64.0132909,5.23142745 Z" id="Shape"></path>
                        <path d="M70.5169315,11.3592296 C70.5169315,9.73331943 70.4642778,8.94896075 70.4116241,8.42696279 C70.9808289,8.26355473 72.4859986,8.11104055 73.1614186,8.11104055 C73.5490588,8.11104055 73.6480115,8.24449046 73.6480115,9.75873846 L73.6480115,15.2546961 C73.6480115,17.2736935 74.8417981,17.664965 75.7777632,17.664965 C76.6320242,17.664965 77.3056285,17.2473666 77.7186878,16.8506482 L77.7186878,9.31572106 C77.7186878,8.55768924 77.7967605,8.39700465 78.2661048,8.2944207 C79.405422,8.16460208 80.055423,8.11104055 80.935103,8.11104055 C80.935103,8.65573407 80.8570303,10.5449128 80.8570303,12.8235474 L80.8570303,16.8297682 C80.8570303,17.8701329 81.1929246,18.1370327 81.8955793,18.2668513 L81.8955793,18.4239046 C81.789364,19.2137102 81.0131758,20.1015607 80.3377558,20.1015607 C78.9388013,20.1015607 78.3659652,19.4179703 78.0863559,18.4239046 C77.4091203,19.0530256 76.6320242,19.4751631 76.1154732,19.7375238 C75.5961987,19.9417839 75.0769242,20.1006529 74.4568814,20.1006529 C71.6816679,20.1006529 70.5169315,18.2414323 70.5169315,15.6795571 L70.5169315,11.3592296 L70.5169315,11.3592296 Z M85.4424419,16.2278819 C86.5045943,16.2278819 87.1518718,17.117548 87.1518718,18.1116137 C87.1518718,19.2872439 86.4020104,20.0725104 85.2636009,20.0725104 C84.4311276,20.0725104 83.4987939,19.4969509 83.4987939,18.2160133 C83.4987939,17.117548 84.1469792,16.2278819 85.4142994,16.2278819 L85.4424419,16.2278819 Z M89.6683559,5.28317333 C89.6683559,3.73987501 89.6138865,3.0344969 89.5639563,2.50977547 C90.082323,2.27555725 91.7690572,2.03770775 92.3110273,2.03770775 C92.6995753,2.03770775 92.8021593,2.16752637 92.8021593,3.73987501 L92.8021593,16.3268345 C92.8021593,17.6104956 92.8557208,19.0303301 92.9083745,19.7892697 C92.3618654,19.9190883 90.3900748,19.992622 90.0305771,19.992622 C89.7691242,19.992622 89.6692637,19.9190883 89.6692637,19.6585433 L89.6692637,5.28317333 L89.6683559,5.28317333 Z M103.038766,17.4271155 C103.169493,18.0580521 103.064185,18.8705533 102.598472,19.2627326 C101.975706,19.8092418 100.889042,20.1015607 99.7451861,20.1015607 C97.1079616,20.1015607 96.2482537,18.3984856 96.2482537,16.5891953 L96.2482537,10.334298 C95.2886852,10.334298 94.7993689,9.8649537 94.7993689,9.6035008 C95.1597744,8.84456116 97.259568,6.95992156 97.7007697,6.59225344 C98.1410637,6.22458531 98.6331035,5.91138653 99.64351,5.81152605 C99.540926,6.59225344 99.4873645,7.53548106 99.4873645,8.26446256 L103.32473,8.26446256 C103.014255,10.0746607 102.441419,10.1527334 101.923052,10.2035715 C101.08732,10.2791907 100.24842,10.3143343 99.4092917,10.3088789 C99.3067078,12.4522479 99.3339425,14.9950589 99.4365264,16.0935242 C99.5654372,17.378093 100.266276,17.8492529 101.145956,17.8492529 C101.923052,17.8492529 102.651126,17.5859844 102.961601,17.378093 L103.038766,17.4271155 L103.038766,17.4271155 Z" id="Shape"></path>
                        <path d="M127.367503,11.0678186 C127.367503,11.5126516 127.036147,11.8612555 126.627627,11.8612555 L121.827969,11.8612555 L117.906176,17.9137083 C117.815143,18.0572766 117.704877,18.1877017 117.578452,18.3013486 L115.819092,18.3458319 C115.819092,18.3458319 115.955265,18.3104268 116.170419,17.7493925 C116.253031,17.5269759 118.421819,11.8612555 118.421819,11.8612555 L115.091018,11.8612555 C114.89856,11.8612555 113.615807,13.4172633 113.615807,13.4172633 L112.331238,13.4172633 L113.188222,11.0678186 L112.331238,8.73017552 L113.615807,8.73017552 C113.615807,8.73017552 114.865878,10.278013 115.091018,10.278013 L118.421819,10.278013 C118.421819,10.278013 116.198562,4.4724878 116.125028,4.27185902 C115.938017,3.81885557 115.819092,3.79797565 115.819092,3.79797565 L117.578452,3.84881372 C117.578452,3.84881372 117.709179,3.92779428 117.878941,4.18470806 C117.957922,4.2990937 121.827969,10.278013 121.827969,10.278013 L126.627627,10.278013 C127.036147,10.278013 127.367503,10.6347872 127.367503,11.0678186 L127.367503,11.0678186 Z M121.2397,0.925625132 C120.660718,0.33366963 119.867622,0 119.039592,0 C118.211563,0 117.418467,0.33366963 116.839485,0.925625132 L108.988635,8.84910027 C107.775546,10.0809376 107.775546,12.0583308 108.988635,13.2901681 L116.839485,21.2181824 C117.419735,21.8081283 118.212564,22.1403839 119.040046,22.1403839 C119.867528,22.1403839 120.660358,21.8081283 121.240608,21.2181824 L129.09055,13.2901681 C130.30315,12.0581309 130.30315,10.0811376 129.09055,8.84910027 L121.240608,0.925625132 L121.2397,0.925625132 Z" id="Shape"></path>
                    </g>
                </g>
            </g>
        </g>
    </g>
</svg>