<?xml version="1.0" encoding="UTF-8"?>
<svg width="100px" height="24px" viewBox="0 0 100 24" version="1.1" xmlns="http://www.w3.org/2000/svg" xmlns:xlink="http://www.w3.org/1999/xlink">
    <title>3FE5929A-D301-4F8F-829C-0958DEFBECDB</title>
    <g id="desktop" stroke="none" stroke-width="1" fill="none" fill-rule="evenodd" opacity="1">
        <g id="landing" transform="translate(-936, -3010)" fill="#FFFFFF">
            <g id="Group-11" transform="translate(100, 2657)">
                <g id="Group-8-Copy-3" transform="translate(836, 300)">
                    <g id="Group" transform="translate(0, 53)">
                        <path d="M18.2725973,0 C16.7118694,0 15.2596282,0.483011983 14.0613442,1.30504463 L10.7968835,0 L10.7968835,9.90606046 L14.948962,11.583658 L14.948962,7.47472755 C14.948962,5.64302974 16.4406529,4.15257163 18.2725973,4.15257163 C20.1045416,4.15257163 21.593767,5.64302974 21.593767,7.47472755 L21.593767,13.2883771 L25.7458455,14.9492085 L25.7458455,7.47472755 C25.7458455,3.35322255 22.3926229,0 18.2725973,0" id="Fill-231"></path>
                        <path d="M10.7968835,16.1950787 C10.7968835,18.0267765 9.30765817,19.5172346 7.47571379,19.5172346 C5.64376942,19.5172346 4.1520785,18.0267765 4.1520785,16.1950787 L4.1520785,10.3814291 L0,8.72059766 L0,16.1950787 C0,20.3165837 3.35322255,23.6698062 7.47571379,23.6698062 C9.03644164,23.6698062 10.4862173,23.1867942 11.6869668,22.3647616 L14.948962,23.6698062 L14.948962,13.6599438 L10.7968835,11.9823463 L10.7968835,16.1950787" id="Fill-232"></path>
                        <path d="M35.051038,19.1920213 C33.616056,19.1920213 32.4596874,18.7339119 31.6164505,17.8297746 C30.7781449,16.9325411 30.3540609,15.6770551 30.3540609,14.0980818 L30.3540609,8.09384092 L33.6653681,8.09384092 L33.6653681,13.8019626 C33.6653681,14.5847921 33.8404261,15.2039055 34.1880763,15.6427832 C34.520933,16.0648947 35.03871,16.2697865 35.7709946,16.2697865 C36.4071207,16.2697865 36.9224321,16.0493614 37.3415849,15.595197 C37.7607377,15.1400464 37.9727797,14.459786 37.9727797,13.5738942 L37.9727797,8.09384092 L41.2471029,8.09384092 L41.2471029,19.1727896 L37.9925046,19.1727896 L37.9925046,18.2112037 C37.7237536,18.4338478 37.4229498,18.6234528 37.0950244,18.7777997 C36.5082105,19.0527146 35.8227723,19.1920213 35.051038,19.1920213" id="Fill-233"></path>
                        <path d="M51.2303368,19.1727896 L51.2303368,13.4644213 C51.2303368,12.6872627 51.0404852,12.0708615 50.6681789,11.6337097 C50.3008038,11.2049411 49.7509739,10.9965975 48.989102,10.9965975 C48.3209231,10.9965975 47.7760245,11.2197347 47.3248188,11.6788303 C46.8760787,12.1327482 46.6492431,12.8105429 46.6492431,13.6927363 L46.6492431,19.1727896 L43.3773855,19.1727896 L43.3773855,8.09384092 L46.6295182,8.09384092 L46.6295182,9.17032398 C46.9155284,8.92647566 47.236057,8.71517333 47.5911041,8.53888259 C48.2099709,8.23043543 48.9225307,8.07411608 49.7090586,8.07411608 C51.2056808,8.07411608 52.4014991,8.53173233 53.257064,9.43439026 C54.1101632,10.3323635 54.5416441,11.5885892 54.5416441,13.1683022 L54.5416441,19.1727896 L51.2303368,19.1727896" id="Fill-234"></path>
                        <polygon id="Fill-235" points="56.575768 19.1727896 59.8673505 19.1727896 59.8673505 6.02125351 56.575768 6.02125351"></polygon>
                        <path d="M67.7474234,11.0796883 C67.3775827,11.0796883 67.0225356,11.1482322 66.6995414,11.2828542 C66.3765472,11.4177228 66.0954682,11.60215 65.866167,11.8307116 C65.6368657,12.0617387 65.4519454,12.3369002 65.3212683,12.6480596 C65.1881256,12.957493 65.1215543,13.2952808 65.1215543,13.6518073 C65.1215543,13.9972385 65.1881256,14.3288624 65.3212683,14.6375561 C65.454411,14.9501948 65.6368657,15.2253563 65.866167,15.4551506 C66.0954682,15.6839588 66.3765472,15.8681395 66.6995414,16.0035012 C67.0225356,16.1381232 67.3751171,16.2061739 67.7474234,16.2061739 C68.1172642,16.2061739 68.46738,16.1381232 68.7829775,16.0039943 C69.1035061,15.8688791 69.384585,15.6834657 69.6212831,15.4519454 C69.8555156,15.2241235 70.0404359,14.9497017 70.1735786,14.6380492 C70.3067212,14.327383 70.3732926,13.995266 70.3732926,13.6518073 C70.3732926,13.2960205 70.3067212,12.9579861 70.1735786,12.6475664 C70.0404359,12.3369002 69.8555156,12.0632181 69.6212831,11.8339169 C69.384585,11.6028897 69.1035061,11.4174762 68.7829775,11.2823611 C68.46738,11.147739 68.1172642,11.0796883 67.7474234,11.0796883 Z M67.7474234,19.3096307 C66.9436363,19.3096307 66.1792988,19.1631737 65.4692046,18.8737117 C64.761576,18.5842497 64.1353124,18.1776715 63.6101386,17.6655654 C63.0849647,17.1534592 62.6658119,16.5464273 62.3674737,15.8624686 C62.0642043,15.1748114 61.9113369,14.431185 61.9113369,13.6518073 C61.9113369,12.8610878 62.0642043,12.111544 62.3674737,11.4233937 C62.6658119,10.7404211 63.0849647,10.1338823 63.6101386,9.62078998 C64.1353124,9.10868386 64.761576,8.70210563 65.4692046,8.4121505 C66.1792988,8.1226885 66.9461019,7.97623157 67.7474234,7.97623157 C68.548745,7.97623157 69.3130825,8.12318162 70.0157799,8.41264362 C70.7184772,8.70161251 71.3422753,9.10769762 71.8723803,9.61906406 C72.4049509,10.1321564 72.8265694,10.7394349 73.1273731,11.4233937 C73.4306425,12.1122836 73.58351,12.8620741 73.58351,13.6518073 C73.58351,14.4292125 73.4306425,15.1735786 73.1273731,15.8624686 C72.8265694,16.5474136 72.4049509,17.154692 71.8723803,17.6667982 C71.3422753,18.1786577 70.7184772,18.5847428 70.0157799,18.8732186 C69.3130825,19.1626806 68.5512106,19.3096307 67.7474234,19.3096307 L67.7474234,19.3096307 Z" id="Fill-236"></path>
                        <polyline id="Fill-237" points="83.6135904 19.1727896 80.3491296 14.9405789 78.899354 16.547167 78.899354 19.1727896 75.6250308 19.1727896 75.6250308 6.02125351 78.899354 6.02125351 78.899354 12.5726121 83.2684057 8.09384092 87.2873416 8.09384092 82.5829676 12.8889492 87.3440505 19.1727896 83.6135904 19.1727896"></polyline>
                        <polyline id="Fill-238" points="96.2695399 19.1727896 93.0050791 14.9405789 91.5528379 16.547167 91.5528379 19.1727896 88.2809803 19.1727896 88.2809803 6.02125351 91.5528379 6.02125351 91.5528379 12.5726121 95.9243552 8.09384092 99.9432911 8.09384092 95.2389171 12.8889492 100 19.1727896 96.2695399 19.1727896"></polyline>
                    </g>
                </g>
            </g>
        </g>
    </g>
</svg>